<?xml version="1.0" encoding="UTF-8" standalone="no"?><svg xmlns="http://www.w3.org/2000/svg" xmlns:xlink="http://www.w3.org/1999/xlink" contentStyleType="text/css" height="1092px" preserveAspectRatio="none" style="width:289px;height:1092px;background:#FFFFFF;" version="1.1" viewBox="0 0 289 1092" width="289px" zoomAndPan="magnify"><defs/><g><!--MD5=[60d6b92408f98aed8df94d5c6e04aa63]
class State--><g id="elem_State"><rect codeLine="2" fill="#F1F1F1" height="96.8906" id="State" rx="2.5" ry="2.5" style="stroke:#181818;stroke-width:0.5;" width="69" x="155.5" y="989"/><ellipse cx="170.95" cy="1005" fill="#EB937F" rx="11" ry="11" style="stroke:#181818;stroke-width:1.0;"/><path d="M175.0594,1011 L167.3406,1011 L167.3406,998.6094 L175.0594,998.6094 L175.0594,1000.7656 L169.7938,1000.7656 L169.7938,1003.4375 L174.5594,1003.4375 L174.5594,1005.5938 L169.7938,1005.5938 L169.7938,1008.8438 L175.0594,1008.8438 L175.0594,1011 Z " fill="#000000"/><text fill="#000000" font-family="sans-serif" font-size="14" lengthAdjust="spacing" textLength="36" x="185.05" y="1009.8467">State</text><line style="stroke:#181818;stroke-width:0.5;" x1="156.5" x2="223.5" y1="1021" y2="1021"/><text fill="#000000" font-family="sans-serif" font-size="14" lengthAdjust="spacing" textLength="41" x="161.5" y="1037.9951">Active</text><text fill="#000000" font-family="sans-serif" font-size="14" lengthAdjust="spacing" textLength="57" x="161.5" y="1054.292">Pending</text><text fill="#000000" font-family="sans-serif" font-size="14" lengthAdjust="spacing" textLength="54" x="161.5" y="1070.5889">Banned</text><line style="stroke:#181818;stroke-width:0.5;" x1="156.5" x2="223.5" y1="1077.8906" y2="1077.8906"/></g><!--MD5=[3fd616f346a44cd59a91eb10b19e157c]
class User--><g id="elem_User"><rect codeLine="7" fill="#F1F1F1" height="205.2656" id="User" rx="2.5" ry="2.5" style="stroke:#181818;stroke-width:0.5;" width="210" x="66" y="7"/><ellipse cx="145.75" cy="28.2969" fill="#ADD1B2" rx="11" ry="11" style="stroke:#181818;stroke-width:1.0;"/><path d="M149.8594,34.2969 L142.1406,34.2969 L142.1406,21.9063 L149.8594,21.9063 L149.8594,24.0625 L144.5938,24.0625 L144.5938,26.7344 L149.3594,26.7344 L149.3594,28.8906 L144.5938,28.8906 L144.5938,32.1406 L149.8594,32.1406 L149.8594,34.2969 Z " fill="#000000"/><text fill="#000000" font-family="sans-serif" font-size="14" lengthAdjust="spacing" textLength="32" x="171.25" y="24.9951">User</text><text fill="#000000" font-family="sans-serif" font-size="14" lengthAdjust="spacing" textLength="42" x="166.25" y="41.292">ユーザ</text><line style="stroke:#181818;stroke-width:0.5;" x1="67" x2="275" y1="49.5938" y2="49.5938"/><ellipse cx="77" cy="60.5938" fill="none" rx="3" ry="3" style="stroke:#038048;stroke-width:1.0;"/><text fill="#000000" font-family="sans-serif" font-size="14" lengthAdjust="spacing" textLength="74" x="86" y="66.5889">id [PK] : Int</text><line style="stroke:#181818;stroke-width:1.0;" x1="67" x2="275" y1="73.8906" y2="73.8906"/><ellipse cx="77" cy="84.8906" fill="#000000" rx="3" ry="3" style="stroke:#000000;stroke-width:1.0;"/><text fill="#000000" font-family="sans-serif" font-size="14" lengthAdjust="spacing" textLength="89" x="86" y="90.8857">email : String</text><text fill="#000000" font-family="sans-serif" font-size="14" lengthAdjust="spacing" textLength="92" x="86" y="107.1826">name : String</text><ellipse cx="77" cy="117.4844" fill="#000000" rx="3" ry="3" style="stroke:#000000;stroke-width:1.0;"/><text fill="#000000" font-family="sans-serif" font-size="14" lengthAdjust="spacing" textLength="153" x="86" y="123.4795">languages : Language</text><ellipse cx="77" cy="133.7813" fill="#000000" rx="3" ry="3" style="stroke:#000000;stroke-width:1.0;"/><text fill="#000000" font-family="sans-serif" font-size="14" lengthAdjust="spacing" textLength="153" x="86" y="139.7764">created_at : DateTime</text><ellipse cx="77" cy="150.0781" fill="#000000" rx="3" ry="3" style="stroke:#000000;stroke-width:1.0;"/><text fill="#000000" font-family="sans-serif" font-size="14" lengthAdjust="spacing" textLength="158" x="86" y="156.0732">updated_at : DateTime</text><polygon fill="none" points="77,161.375,81,165.375,77,169.375,73,165.375" style="stroke:#B38D22;stroke-width:1.0;"/><text fill="#000000" font-family="sans-serif" font-size="14" lengthAdjust="spacing" textLength="137" x="86" y="172.3701">team_id : [FK] Team</text><polygon fill="none" points="77,177.6719,81,181.6719,77,185.6719,73,181.6719" style="stroke:#B38D22;stroke-width:1.0;"/><text fill="#000000" font-family="sans-serif" font-size="14" lengthAdjust="spacing" textLength="184" x="86" y="188.667">companyId : [FK] Company</text><polygon fill="none" points="77,193.9688,81,197.9688,77,201.9688,73,197.9688" style="stroke:#B38D22;stroke-width:1.0;"/><text fill="#000000" font-family="sans-serif" font-size="14" lengthAdjust="spacing" textLength="113" x="86" y="204.9639">roleId : [FK] Role</text></g><!--MD5=[dfb0845b8492ffe07b1ce50e003034d7]
class Team--><g id="elem_Team"><rect codeLine="20" fill="#F1F1F1" height="107.4844" id="Team" rx="2.5" ry="2.5" style="stroke:#181818;stroke-width:0.5;" width="184" x="7" y="394"/><ellipse cx="71.25" cy="415.2969" fill="#ADD1B2" rx="11" ry="11" style="stroke:#181818;stroke-width:1.0;"/><path d="M75.3594,421.2969 L67.6406,421.2969 L67.6406,408.9063 L75.3594,408.9063 L75.3594,411.0625 L70.0938,411.0625 L70.0938,413.7344 L74.8594,413.7344 L74.8594,415.8906 L70.0938,415.8906 L70.0938,419.1406 L75.3594,419.1406 L75.3594,421.2969 Z " fill="#000000"/><text fill="#000000" font-family="sans-serif" font-size="14" lengthAdjust="spacing" textLength="39" x="95.75" y="411.9951">Team</text><text fill="#000000" font-family="sans-serif" font-size="14" lengthAdjust="spacing" textLength="47" x="91.75" y="428.292">Teams</text><line style="stroke:#181818;stroke-width:0.5;" x1="8" x2="190" y1="436.5938" y2="436.5938"/><ellipse cx="18" cy="447.5938" fill="none" rx="3" ry="3" style="stroke:#038048;stroke-width:1.0;"/><text fill="#000000" font-family="sans-serif" font-size="14" lengthAdjust="spacing" textLength="97" x="27" y="453.5889">id [PK] : String</text><line style="stroke:#181818;stroke-width:1.0;" x1="8" x2="190" y1="460.8906" y2="460.8906"/><ellipse cx="18" cy="471.8906" fill="#000000" rx="3" ry="3" style="stroke:#000000;stroke-width:1.0;"/><text fill="#000000" font-family="sans-serif" font-size="14" lengthAdjust="spacing" textLength="153" x="27" y="477.8857">created_at : DateTime</text><ellipse cx="18" cy="488.1875" fill="#000000" rx="3" ry="3" style="stroke:#000000;stroke-width:1.0;"/><text fill="#000000" font-family="sans-serif" font-size="14" lengthAdjust="spacing" textLength="158" x="27" y="494.1826">updated_at : DateTime</text></g><!--MD5=[02e4b9b7573f1156f41e60aa5b4e25a4]
class Company--><g id="elem_Company"><rect codeLine="27" fill="#F1F1F1" height="123.7813" id="Company" rx="2.5" ry="2.5" style="stroke:#181818;stroke-width:0.5;" width="184" x="98" y="683"/><ellipse cx="153.25" cy="704.2969" fill="#ADD1B2" rx="11" ry="11" style="stroke:#181818;stroke-width:1.0;"/><path d="M157.3594,710.2969 L149.6406,710.2969 L149.6406,697.9063 L157.3594,697.9063 L157.3594,700.0625 L152.0938,700.0625 L152.0938,702.7344 L156.8594,702.7344 L156.8594,704.8906 L152.0938,704.8906 L152.0938,708.1406 L157.3594,708.1406 L157.3594,710.2969 Z " fill="#000000"/><text fill="#000000" font-family="sans-serif" font-size="14" lengthAdjust="spacing" textLength="65" x="173.75" y="700.9951">Company</text><text fill="#000000" font-family="sans-serif" font-size="14" lengthAdjust="spacing" textLength="28" x="192.25" y="717.292">会社</text><line style="stroke:#181818;stroke-width:0.5;" x1="99" x2="281" y1="725.5938" y2="725.5938"/><ellipse cx="109" cy="736.5938" fill="none" rx="3" ry="3" style="stroke:#038048;stroke-width:1.0;"/><text fill="#000000" font-family="sans-serif" font-size="14" lengthAdjust="spacing" textLength="97" x="118" y="742.5889">id [PK] : String</text><line style="stroke:#181818;stroke-width:1.0;" x1="99" x2="281" y1="749.8906" y2="749.8906"/><ellipse cx="109" cy="760.8906" fill="#000000" rx="3" ry="3" style="stroke:#000000;stroke-width:1.0;"/><text fill="#000000" font-family="sans-serif" font-size="14" lengthAdjust="spacing" textLength="84" x="118" y="766.8857">state : State</text><ellipse cx="109" cy="777.1875" fill="#000000" rx="3" ry="3" style="stroke:#000000;stroke-width:1.0;"/><text fill="#000000" font-family="sans-serif" font-size="14" lengthAdjust="spacing" textLength="153" x="118" y="783.1826">created_at : DateTime</text><ellipse cx="109" cy="793.4844" fill="#000000" rx="3" ry="3" style="stroke:#000000;stroke-width:1.0;"/><text fill="#000000" font-family="sans-serif" font-size="14" lengthAdjust="spacing" textLength="158" x="118" y="799.4795">updated_at : DateTime</text></g><!--MD5=[3c85ed1c74d2fd8e0488dff9cf058b2b]
link User to Team--><g id="link_User_Team"><path codeLine="36" d="M128.5,220.29 C128.5,220.29 128.5,385.72 128.5,385.72 " fill="none" id="User-Team" style="stroke:#181818;stroke-width:1.0;"/><line style="stroke:#181818;stroke-width:1.0;" x1="132.5" x2="124.5" y1="389.72" y2="389.72"/><line style="stroke:#181818;stroke-width:1.0;" x1="132.5" x2="124.5" y1="386.72" y2="386.72"/><line style="stroke:#181818;stroke-width:1.0;" x1="128.5" x2="128.5" y1="385.72" y2="393.72"/><line style="stroke:#181818;stroke-width:1.0;" x1="128.5" x2="122.5" y1="220.29" y2="212.29"/><line style="stroke:#181818;stroke-width:1.0;" x1="128.5" x2="134.5" y1="220.29" y2="212.29"/><line style="stroke:#181818;stroke-width:1.0;" x1="128.5" x2="128.5" y1="220.29" y2="212.29"/><ellipse cx="128.5" cy="226.29" fill="none" rx="4" ry="4" style="stroke:#181818;stroke-width:1.0;"/></g><!--MD5=[466bf63bac18688930d4e31d035f36ce]
link User to Company--><g id="link_User_Company"><path codeLine="37" d="M233.5,220.31 C233.5,220.31 233.5,674.79 233.5,674.79 " fill="none" id="User-Company" style="stroke:#181818;stroke-width:1.0;"/><line style="stroke:#181818;stroke-width:1.0;" x1="233.5" x2="233.5" y1="671.79" y2="682.79"/><ellipse cx="233.5" cy="671.79" fill="none" rx="4" ry="4" style="stroke:#181818;stroke-width:1.0;"/><line style="stroke:#181818;stroke-width:1.0;" x1="237.5" x2="229.5" y1="678.79" y2="678.79"/><line style="stroke:#181818;stroke-width:1.0;" x1="233.5" x2="227.5" y1="220.31" y2="212.31"/><line style="stroke:#181818;stroke-width:1.0;" x1="233.5" x2="239.5" y1="220.31" y2="212.31"/><line style="stroke:#181818;stroke-width:1.0;" x1="233.5" x2="233.5" y1="220.31" y2="212.31"/><ellipse cx="233.5" cy="226.31" fill="none" rx="4" ry="4" style="stroke:#181818;stroke-width:1.0;"/></g><!--MD5=[f456df819ce8f0370653f495491802b3]
link Team to Company--><g id="link_Team_Company"><path codeLine="39" d="M144.5,509.03 C144.5,509.03 144.5,674.89 144.5,674.89 " fill="none" id="Team-Company" style="stroke:#181818;stroke-width:1.0;"/><line style="stroke:#181818;stroke-width:1.0;" x1="144.5" x2="150.5" y1="674.89" y2="682.89"/><line style="stroke:#181818;stroke-width:1.0;" x1="144.5" x2="138.5" y1="674.89" y2="682.89"/><line style="stroke:#181818;stroke-width:1.0;" x1="144.5" x2="144.5" y1="674.89" y2="682.89"/><ellipse cx="144.5" cy="668.89" fill="none" rx="4" ry="4" style="stroke:#181818;stroke-width:1.0;"/><line style="stroke:#181818;stroke-width:1.0;" x1="144.5" x2="138.5" y1="509.03" y2="501.03"/><line style="stroke:#181818;stroke-width:1.0;" x1="144.5" x2="150.5" y1="509.03" y2="501.03"/><line style="stroke:#181818;stroke-width:1.0;" x1="144.5" x2="144.5" y1="509.03" y2="501.03"/><ellipse cx="144.5" cy="515.03" fill="none" rx="4" ry="4" style="stroke:#181818;stroke-width:1.0;"/></g><!--MD5=[235dbd4a8cc358fbd47a76d5ec603d02]
link Company to State--><g id="link_Company_State"><path codeLine="41" d="M190,815.03 C190,815.03 190,980.61 190,980.61 " fill="none" id="Company-State" style="stroke:#181818;stroke-width:1.0;"/><line style="stroke:#181818;stroke-width:1.0;" x1="194" x2="186" y1="984.61" y2="984.61"/><line style="stroke:#181818;stroke-width:1.0;" x1="194" x2="186" y1="981.61" y2="981.61"/><line style="stroke:#181818;stroke-width:1.0;" x1="190" x2="190" y1="980.61" y2="988.61"/><line style="stroke:#181818;stroke-width:1.0;" x1="190" x2="190" y1="818.03" y2="807.03"/><ellipse cx="190" cy="818.03" fill="none" rx="4" ry="4" style="stroke:#181818;stroke-width:1.0;"/><line style="stroke:#181818;stroke-width:1.0;" x1="186" x2="194" y1="811.03" y2="811.03"/></g><!--MD5=[d61deb3a60ee5ef84afc17c9a87cb608]
@startuml Company
skinparam linetype ortho
enum "State" as State {
  Active
  Pending
  Banned
}
entity "User\nユーザ" as User {
+ id [PK] : Int 
- -
  * email : String
  name : String
  * languages : Language
  * created_at : DateTime
  * updated_at : DateTime
  # team_id : [FK] Team
  # companyId : [FK] Company
  # roleId : [FK] Role
}

entity "Team\nTeams" as Team {
+ id [PK] : String 
- -
  * created_at : DateTime
  * updated_at : DateTime
}

entity "Company\n会社" as Company {
+ id [PK] : String 
- -
  * state : State
  * created_at : DateTime
  * updated_at : DateTime
}

' Relations
User }o- - - -|| Team
User }o- - - -o| Company
' ManyToMany Relations
Team }o- - - -o{ Company
' enum relations
Company |o- - - -|| State
@enduml

@startuml Company
skinparam linetype ortho
enum "State" as State {
  Active
  Pending
  Banned
}
entity "User\nユーザ" as User {
+ id [PK] : Int 
- -
  * email : String
  name : String
  * languages : Language
  * created_at : DateTime
  * updated_at : DateTime
  # team_id : [FK] Team
  # companyId : [FK] Company
  # roleId : [FK] Role
}

entity "Team\nTeams" as Team {
+ id [PK] : String 
- -
  * created_at : DateTime
  * updated_at : DateTime
}

entity "Company\n会社" as Company {
+ id [PK] : String 
- -
  * state : State
  * created_at : DateTime
  * updated_at : DateTime
}

User }o- - - -|| Team
User }o- - - -o| Company
Team }o- - - -o{ Company
Company |o- - - -|| State
@enduml

PlantUML version 1.2022.6(Tue Jun 21 17:34:49 UTC 2022)
(GPL source distribution)
Java Runtime: OpenJDK Runtime Environment
JVM: OpenJDK 64-Bit Server VM
Default Encoding: UTF-8
Language: en
Country: null
--></g></svg>