<svg xmlns="http://www.w3.org/2000/svg" xmlns:xlink="http://www.w3.org/1999/xlink" contentStyleType="text/css" height="1093px" preserveAspectRatio="none" style="width:312px;height:1093px;background:#FFFFFF;" version="1.1" viewBox="0 0 312 1093" width="312px" zoomAndPan="magnify"><defs/><g><!--class State--><g id="elem_State"><rect codeLine="2" fill="#F1F1F1" height="96.8906" id="State" rx="2.5" ry="2.5" style="stroke:#181818;stroke-width:0.5;" width="69" x="155.5" y="989.53"/><ellipse cx="170.95" cy="1005.53" fill="#EB937F" rx="11" ry="11" style="stroke:#181818;stroke-width:1.0;"/><path d="M175.0594,1011.53 L167.3406,1011.53 L167.3406,999.1394 L175.0594,999.1394 L175.0594,1001.2956 L169.7938,1001.2956 L169.7938,1003.9675 L174.5594,1003.9675 L174.5594,1006.1238 L169.7938,1006.1238 L169.7938,1009.3738 L175.0594,1009.3738 L175.0594,1011.53 Z " fill="#000000"/><text fill="#000000" font-family="sans-serif" font-size="14" lengthAdjust="spacing" textLength="36" x="185.05" y="1010.3767">State</text><line style="stroke:#181818;stroke-width:0.5;" x1="156.5" x2="223.5" y1="1021.53" y2="1021.53"/><text fill="#000000" font-family="sans-serif" font-size="14" lengthAdjust="spacing" textLength="41" x="161.5" y="1038.5251">Active</text><text fill="#000000" font-family="sans-serif" font-size="14" lengthAdjust="spacing" textLength="57" x="161.5" y="1054.822">Pending</text><text fill="#000000" font-family="sans-serif" font-size="14" lengthAdjust="spacing" textLength="54" x="161.5" y="1071.1189">Banned</text><line style="stroke:#181818;stroke-width:0.5;" x1="156.5" x2="223.5" y1="1078.4206" y2="1078.4206"/></g><!--class User--><g id="elem_User"><rect codeLine="7" fill="#F1F1F1" height="205.2656" id="User" rx="2.5" ry="2.5" style="stroke:#181818;stroke-width:0.5;" width="210" x="66" y="7"/><ellipse cx="145.75" cy="28.2969" fill="#ADD1B2" rx="11" ry="11" style="stroke:#181818;stroke-width:1.0;"/><path d="M149.8594,34.2969 L142.1406,34.2969 L142.1406,21.9063 L149.8594,21.9063 L149.8594,24.0625 L144.5938,24.0625 L144.5938,26.7344 L149.3594,26.7344 L149.3594,28.8906 L144.5938,28.8906 L144.5938,32.1406 L149.8594,32.1406 L149.8594,34.2969 Z " fill="#000000"/><text fill="#000000" font-family="sans-serif" font-size="14" lengthAdjust="spacing" textLength="32" x="171.25" y="24.9951">User</text><text fill="#000000" font-family="sans-serif" font-size="14" lengthAdjust="spacing" textLength="42" x="166.25" y="41.292">&#12518;&#12540;&#12470;</text><line style="stroke:#181818;stroke-width:0.5;" x1="67" x2="275" y1="49.5938" y2="49.5938"/><ellipse cx="77" cy="63.2422" fill="none" rx="3" ry="3" style="stroke:#038048;stroke-width:1.0;"/><text fill="#000000" font-family="sans-serif" font-size="14" lengthAdjust="spacing" textLength="74" x="86" y="66.5889">id [PK] : Int</text><line style="stroke:#181818;stroke-width:1.0;" x1="67" x2="275" y1="73.8906" y2="73.8906"/><ellipse cx="77" cy="87.5391" fill="#000000" rx="3" ry="3" style="stroke:#000000;stroke-width:1.0;"/><text fill="#000000" font-family="sans-serif" font-size="14" lengthAdjust="spacing" textLength="122" x="86" y="90.8857">email : [UK] String</text><text fill="#000000" font-family="sans-serif" font-size="14" lengthAdjust="spacing" textLength="92" x="86" y="107.1826">name : String</text><ellipse cx="77" cy="120.1328" fill="#000000" rx="3" ry="3" style="stroke:#000000;stroke-width:1.0;"/><text fill="#000000" font-family="sans-serif" font-size="14" lengthAdjust="spacing" textLength="153" x="86" y="123.4795">languages : Language</text><ellipse cx="77" cy="136.4297" fill="#000000" rx="3" ry="3" style="stroke:#000000;stroke-width:1.0;"/><text fill="#000000" font-family="sans-serif" font-size="14" lengthAdjust="spacing" textLength="153" x="86" y="139.7764">created_at : DateTime</text><ellipse cx="77" cy="152.7266" fill="#000000" rx="3" ry="3" style="stroke:#000000;stroke-width:1.0;"/><text fill="#000000" font-family="sans-serif" font-size="14" lengthAdjust="spacing" textLength="158" x="86" y="156.0732">updated_at : DateTime</text><polygon fill="none" points="77,164.0234,81,168.0234,77,172.0234,73,168.0234" style="stroke:#B38D22;stroke-width:1.0;"/><text fill="#000000" font-family="sans-serif" font-size="14" lengthAdjust="spacing" textLength="137" x="86" y="172.3701">team_id : [FK] Team</text><polygon fill="none" points="77,180.3203,81,184.3203,77,188.3203,73,184.3203" style="stroke:#B38D22;stroke-width:1.0;"/><text fill="#000000" font-family="sans-serif" font-size="14" lengthAdjust="spacing" textLength="184" x="86" y="188.667">companyId : [FK] Company</text><polygon fill="none" points="77,196.6172,81,200.6172,77,204.6172,73,200.6172" style="stroke:#B38D22;stroke-width:1.0;"/><text fill="#000000" font-family="sans-serif" font-size="14" lengthAdjust="spacing" textLength="113" x="86" y="204.9639">roleId : [FK] Role</text></g><!--class Team--><g id="elem_Team"><rect codeLine="20" fill="#F1F1F1" height="107.4844" id="Team" rx="2.5" ry="2.5" style="stroke:#181818;stroke-width:0.5;" width="184" x="7" y="394.26"/><ellipse cx="71.25" cy="415.5569" fill="#ADD1B2" rx="11" ry="11" style="stroke:#181818;stroke-width:1.0;"/><path d="M75.3594,421.5569 L67.6406,421.5569 L67.6406,409.1663 L75.3594,409.1663 L75.3594,411.3225 L70.0938,411.3225 L70.0938,413.9944 L74.8594,413.9944 L74.8594,416.1506 L70.0938,416.1506 L70.0938,419.4006 L75.3594,419.4006 L75.3594,421.5569 Z " fill="#000000"/><text fill="#000000" font-family="sans-serif" font-size="14" lengthAdjust="spacing" textLength="39" x="95.75" y="412.2551">Team</text><text fill="#000000" font-family="sans-serif" font-size="14" lengthAdjust="spacing" textLength="47" x="91.75" y="428.552">Teams</text><line style="stroke:#181818;stroke-width:0.5;" x1="8" x2="190" y1="436.8538" y2="436.8538"/><ellipse cx="18" cy="450.5022" fill="none" rx="3" ry="3" style="stroke:#038048;stroke-width:1.0;"/><text fill="#000000" font-family="sans-serif" font-size="14" lengthAdjust="spacing" textLength="97" x="27" y="453.8489">id [PK] : String</text><line style="stroke:#181818;stroke-width:1.0;" x1="8" x2="190" y1="461.1506" y2="461.1506"/><ellipse cx="18" cy="474.7991" fill="#000000" rx="3" ry="3" style="stroke:#000000;stroke-width:1.0;"/><text fill="#000000" font-family="sans-serif" font-size="14" lengthAdjust="spacing" textLength="153" x="27" y="478.1457">created_at : DateTime</text><ellipse cx="18" cy="491.0959" fill="#000000" rx="3" ry="3" style="stroke:#000000;stroke-width:1.0;"/><text fill="#000000" font-family="sans-serif" font-size="14" lengthAdjust="spacing" textLength="158" x="27" y="494.4426">updated_at : DateTime</text></g><!--class Company--><g id="elem_Company"><rect codeLine="27" fill="#F1F1F1" height="123.7813" id="Company" rx="2.5" ry="2.5" style="stroke:#181818;stroke-width:0.5;" width="184" x="98" y="683.75"/><ellipse cx="153.25" cy="705.0469" fill="#ADD1B2" rx="11" ry="11" style="stroke:#181818;stroke-width:1.0;"/><path d="M157.3594,711.0469 L149.6406,711.0469 L149.6406,698.6563 L157.3594,698.6563 L157.3594,700.8125 L152.0938,700.8125 L152.0938,703.4844 L156.8594,703.4844 L156.8594,705.6406 L152.0938,705.6406 L152.0938,708.8906 L157.3594,708.8906 L157.3594,711.0469 Z " fill="#000000"/><text fill="#000000" font-family="sans-serif" font-size="14" lengthAdjust="spacing" textLength="65" x="173.75" y="701.7451">Company</text><text fill="#000000" font-family="sans-serif" font-size="14" lengthAdjust="spacing" textLength="28" x="192.25" y="718.042">&#20250;&#31038;</text><line style="stroke:#181818;stroke-width:0.5;" x1="99" x2="281" y1="726.3438" y2="726.3438"/><ellipse cx="109" cy="739.9922" fill="none" rx="3" ry="3" style="stroke:#038048;stroke-width:1.0;"/><text fill="#000000" font-family="sans-serif" font-size="14" lengthAdjust="spacing" textLength="97" x="118" y="743.3389">id [PK] : String</text><line style="stroke:#181818;stroke-width:1.0;" x1="99" x2="281" y1="750.6406" y2="750.6406"/><ellipse cx="109" cy="764.2891" fill="#000000" rx="3" ry="3" style="stroke:#000000;stroke-width:1.0;"/><text fill="#000000" font-family="sans-serif" font-size="14" lengthAdjust="spacing" textLength="84" x="118" y="767.6357">state : State</text><ellipse cx="109" cy="780.5859" fill="#000000" rx="3" ry="3" style="stroke:#000000;stroke-width:1.0;"/><text fill="#000000" font-family="sans-serif" font-size="14" lengthAdjust="spacing" textLength="153" x="118" y="783.9326">created_at : DateTime</text><ellipse cx="109" cy="796.8828" fill="#000000" rx="3" ry="3" style="stroke:#000000;stroke-width:1.0;"/><text fill="#000000" font-family="sans-serif" font-size="14" lengthAdjust="spacing" textLength="158" x="118" y="800.2295">updated_at : DateTime</text></g><!--link User to Team--><g id="link_User_Team"><path codeLine="36" d="M128.5,230.53 C128.5,290.42 128.5,337.47 128.5,386.17 " fill="none" id="User-Team" style="stroke:#181818;stroke-width:1.0;"/><line style="stroke:#181818;stroke-width:1.0;" x1="128.5" x2="122.5" y1="220.53" y2="212.53"/><line style="stroke:#181818;stroke-width:1.0;" x1="128.5" x2="134.5" y1="220.53" y2="212.53"/><line style="stroke:#181818;stroke-width:1.0;" x1="128.5" x2="128.5" y1="220.53" y2="212.53"/><ellipse cx="128.5" cy="226.53" fill="none" rx="4" ry="4" style="stroke:#181818;stroke-width:1.0;"/><line style="stroke:#181818;stroke-width:1.0;" x1="132.5" x2="124.5" y1="390.17" y2="390.17"/><line style="stroke:#181818;stroke-width:1.0;" x1="132.5" x2="124.5" y1="387.17" y2="387.17"/><line style="stroke:#181818;stroke-width:1.0;" x1="128.5" x2="128.5" y1="386.17" y2="394.17"/><text fill="#000000" font-family="sans-serif" font-size="13" lengthAdjust="spacing" textLength="52" x="75.5" y="299.4169">team_id</text></g><!--link User to Company--><g id="link_User_Company"><path codeLine="37" d="M233.5,230.52 C233.5,363.77 233.5,558.87 233.5,668.38 " fill="none" id="User-Company" style="stroke:#181818;stroke-width:1.0;"/><line style="stroke:#181818;stroke-width:1.0;" x1="233.5" x2="227.5" y1="220.52" y2="212.52"/><line style="stroke:#181818;stroke-width:1.0;" x1="233.5" x2="239.5" y1="220.52" y2="212.52"/><line style="stroke:#181818;stroke-width:1.0;" x1="233.5" x2="233.5" y1="220.52" y2="212.52"/><ellipse cx="233.5" cy="226.52" fill="none" rx="4" ry="4" style="stroke:#181818;stroke-width:1.0;"/><line style="stroke:#181818;stroke-width:1.0;" x1="233.5" x2="233.5" y1="672.38" y2="683.38"/><ellipse cx="233.5" cy="672.38" fill="none" rx="4" ry="4" style="stroke:#181818;stroke-width:1.0;"/><line style="stroke:#181818;stroke-width:1.0;" x1="237.5" x2="229.5" y1="679.38" y2="679.38"/><text fill="#000000" font-family="sans-serif" font-size="13" lengthAdjust="spacing" textLength="70" x="234.5" y="444.0169">companyId</text></g><!--link Team to Company--><g id="link_Team_Company"><path codeLine="39" d="M144.5,519.9 C144.5,571 144.5,611.71 144.5,665.39 " fill="none" id="Team-Company" style="stroke:#181818;stroke-width:1.0;"/><line style="stroke:#181818;stroke-width:1.0;" x1="144.5" x2="138.5" y1="509.9" y2="501.9"/><line style="stroke:#181818;stroke-width:1.0;" x1="144.5" x2="150.5" y1="509.9" y2="501.9"/><line style="stroke:#181818;stroke-width:1.0;" x1="144.5" x2="144.5" y1="509.9" y2="501.9"/><ellipse cx="144.5" cy="515.9" fill="none" rx="4" ry="4" style="stroke:#181818;stroke-width:1.0;"/><line style="stroke:#181818;stroke-width:1.0;" x1="144.5" x2="150.5" y1="675.39" y2="683.39"/><line style="stroke:#181818;stroke-width:1.0;" x1="144.5" x2="138.5" y1="675.39" y2="683.39"/><line style="stroke:#181818;stroke-width:1.0;" x1="144.5" x2="144.5" y1="675.39" y2="683.39"/><ellipse cx="144.5" cy="669.39" fill="none" rx="4" ry="4" style="stroke:#181818;stroke-width:1.0;"/></g><!--link Company to State--><g id="link_Company_State"><path codeLine="41" d="M190,822.99 C190,877.16 190,931.51 190,981.24 " fill="none" id="Company-State" style="stroke:#181818;stroke-width:1.0;"/><line style="stroke:#181818;stroke-width:1.0;" x1="190" x2="190" y1="818.99" y2="807.99"/><ellipse cx="190" cy="818.99" fill="none" rx="4" ry="4" style="stroke:#181818;stroke-width:1.0;"/><line style="stroke:#181818;stroke-width:1.0;" x1="186" x2="194" y1="811.99" y2="811.99"/><line style="stroke:#181818;stroke-width:1.0;" x1="194" x2="186" y1="985.24" y2="985.24"/><line style="stroke:#181818;stroke-width:1.0;" x1="194" x2="186" y1="982.24" y2="982.24"/><line style="stroke:#181818;stroke-width:1.0;" x1="190" x2="190" y1="981.24" y2="989.24"/></g><!--SRC=[dL9BIWD14DtFAOgu24HoWTdvGGWgX7nMYOGcKyJ6wUgXkoE4J3Rc5gx58xWANYQ2rx2cvfCW8kWicjVlJR-grzN-GLEcd3AGQiAmoX2i2_SsGbeQQ0s32jW2vK4Gh2E0itdGZyYWZvHeMZ0wLqIOH1i-5NHOGMliqKrflttTRtVxfpTnA3WsE0MTmAH_VGSnz2X0rEsoGmVGA9qoDncpD0okT2PbaCbctu5KqMAf5kYPlgcm27E7t68oKu6LIuOZRKfbcIK_AYSGK9aPzyDbhxZiYBV2pwt95ArwZN9H4Y8wc-916V2EapVH2uyf5QkNs0Nw5hjCqoJ_Q-D7nQgsflInU_vyUPU25VTxJI_ZZCkn_hUBDWmmLK5Ryf5CTsEx_EMvX8xhsptMR5xt5nykcOrk6OniiHvvojLLvzRD2DeWRzCrlzM1yxgwXFe2]--></g></svg>