<?xml version="1.0" encoding="UTF-8" standalone="no"?><svg xmlns="http://www.w3.org/2000/svg" xmlns:xlink="http://www.w3.org/1999/xlink" contentStyleType="text/css" height="1131px" preserveAspectRatio="none" style="width:562px;height:1131px;background:#FFFFFF;" version="1.1" viewBox="0 0 562 1131" width="562px" zoomAndPan="magnify"><defs/><g><!--MD5=[f7cfd16e4193b177764fb7ce127a666a]
class NotificationType--><g id="elem_NotificationType"><rect codeLine="2" fill="#F1F1F1" height="162.0781" id="NotificationType" rx="2.5" ry="2.5" style="stroke:#181818;stroke-width:0.5;" width="142" x="60" y="28.5"/><ellipse cx="75" cy="44.5" fill="#EB937F" rx="11" ry="11" style="stroke:#181818;stroke-width:1.0;"/><path d="M79.1094,50.5 L71.3906,50.5 L71.3906,38.1094 L79.1094,38.1094 L79.1094,40.2656 L73.8438,40.2656 L73.8438,42.9375 L78.6094,42.9375 L78.6094,45.0938 L73.8438,45.0938 L73.8438,48.3438 L79.1094,48.3438 L79.1094,50.5 Z " fill="#000000"/><text fill="#000000" font-family="sans-serif" font-size="14" lengthAdjust="spacing" textLength="110" x="89" y="49.3467">NotificationType</text><line style="stroke:#181818;stroke-width:0.5;" x1="61" x2="201" y1="60.5" y2="60.5"/><text fill="#000000" font-family="sans-serif" font-size="14" lengthAdjust="spacing" textLength="68" x="66" y="77.4951">newPosts</text><text fill="#000000" font-family="sans-serif" font-size="14" lengthAdjust="spacing" textLength="105" x="66" y="93.792">newComments</text><text fill="#000000" font-family="sans-serif" font-size="14" lengthAdjust="spacing" textLength="94" x="66" y="110.0889">newFollowers</text><text fill="#000000" font-family="sans-serif" font-size="14" lengthAdjust="spacing" textLength="33" x="66" y="126.3857">reply</text><text fill="#000000" font-family="sans-serif" font-size="14" lengthAdjust="spacing" textLength="87" x="66" y="142.6826">heartOnPost</text><text fill="#000000" font-family="sans-serif" font-size="14" lengthAdjust="spacing" textLength="124" x="66" y="158.9795">heartOnComment</text><text fill="#000000" font-family="sans-serif" font-size="14" lengthAdjust="spacing" textLength="94" x="66" y="175.2764">heartOnReply</text><line style="stroke:#181818;stroke-width:0.5;" x1="61" x2="201" y1="182.5781" y2="182.5781"/></g><!--MD5=[604575fdb45ee3504bf55618cb71a1d3]
class Language--><g id="elem_Language"><rect codeLine="11" fill="#F1F1F1" height="145.7813" id="Language" rx="2.5" ry="2.5" style="stroke:#181818;stroke-width:0.5;" width="100" x="7" y="394"/><ellipse cx="22" cy="410" fill="#EB937F" rx="11" ry="11" style="stroke:#181818;stroke-width:1.0;"/><path d="M26.1094,416 L18.3906,416 L18.3906,403.6094 L26.1094,403.6094 L26.1094,405.7656 L20.8438,405.7656 L20.8438,408.4375 L25.6094,408.4375 L25.6094,410.5938 L20.8438,410.5938 L20.8438,413.8438 L26.1094,413.8438 L26.1094,416 Z " fill="#000000"/><text fill="#000000" font-family="sans-serif" font-size="14" lengthAdjust="spacing" textLength="68" x="36" y="414.8467">Language</text><line style="stroke:#181818;stroke-width:0.5;" x1="8" x2="106" y1="426" y2="426"/><text fill="#000000" font-family="sans-serif" font-size="14" lengthAdjust="spacing" textLength="72" x="13" y="442.9951">Typescript</text><text fill="#000000" font-family="sans-serif" font-size="14" lengthAdjust="spacing" textLength="64" x="13" y="459.292">Javascript</text><text fill="#000000" font-family="sans-serif" font-size="14" lengthAdjust="spacing" textLength="32" x="13" y="475.5889">Rust</text><text fill="#000000" font-family="sans-serif" font-size="14" lengthAdjust="spacing" textLength="20" x="13" y="491.8857">Go</text><text fill="#000000" font-family="sans-serif" font-size="14" lengthAdjust="spacing" textLength="48" x="13" y="508.1826">Python</text><text fill="#000000" font-family="sans-serif" font-size="14" lengthAdjust="spacing" textLength="28" x="13" y="524.4795">Cpp</text><line style="stroke:#181818;stroke-width:0.5;" x1="8" x2="106" y1="531.7813" y2="531.7813"/></g><!--MD5=[60d6b92408f98aed8df94d5c6e04aa63]
class State--><g id="elem_State"><rect codeLine="19" fill="#F1F1F1" height="96.8906" id="State" rx="2.5" ry="2.5" style="stroke:#181818;stroke-width:0.5;" width="69" x="271.5" y="1028"/><ellipse cx="286.95" cy="1044" fill="#EB937F" rx="11" ry="11" style="stroke:#181818;stroke-width:1.0;"/><path d="M291.0594,1050 L283.3406,1050 L283.3406,1037.6094 L291.0594,1037.6094 L291.0594,1039.7656 L285.7938,1039.7656 L285.7938,1042.4375 L290.5594,1042.4375 L290.5594,1044.5938 L285.7938,1044.5938 L285.7938,1047.8438 L291.0594,1047.8438 L291.0594,1050 Z " fill="#000000"/><text fill="#000000" font-family="sans-serif" font-size="14" lengthAdjust="spacing" textLength="36" x="301.05" y="1048.8467">State</text><line style="stroke:#181818;stroke-width:0.5;" x1="272.5" x2="339.5" y1="1060" y2="1060"/><text fill="#000000" font-family="sans-serif" font-size="14" lengthAdjust="spacing" textLength="41" x="277.5" y="1076.9951">Active</text><text fill="#000000" font-family="sans-serif" font-size="14" lengthAdjust="spacing" textLength="57" x="277.5" y="1093.292">Pending</text><text fill="#000000" font-family="sans-serif" font-size="14" lengthAdjust="spacing" textLength="54" x="277.5" y="1109.5889">Banned</text><line style="stroke:#181818;stroke-width:0.5;" x1="272.5" x2="339.5" y1="1116.8906" y2="1116.8906"/></g><!--MD5=[3fd616f346a44cd59a91eb10b19e157c]
class User--><g id="elem_User"><rect codeLine="24" fill="#F1F1F1" height="205.2656" id="User" rx="2.5" ry="2.5" style="stroke:#181818;stroke-width:0.5;" width="210" x="237" y="7"/><ellipse cx="316.75" cy="28.2969" fill="#ADD1B2" rx="11" ry="11" style="stroke:#181818;stroke-width:1.0;"/><path d="M320.8594,34.2969 L313.1406,34.2969 L313.1406,21.9063 L320.8594,21.9063 L320.8594,24.0625 L315.5938,24.0625 L315.5938,26.7344 L320.3594,26.7344 L320.3594,28.8906 L315.5938,28.8906 L315.5938,32.1406 L320.8594,32.1406 L320.8594,34.2969 Z " fill="#000000"/><text fill="#000000" font-family="sans-serif" font-size="14" lengthAdjust="spacing" textLength="32" x="342.25" y="24.9951">User</text><text fill="#000000" font-family="sans-serif" font-size="14" lengthAdjust="spacing" textLength="42" x="337.25" y="41.292">ユーザ</text><line style="stroke:#181818;stroke-width:0.5;" x1="238" x2="446" y1="49.5938" y2="49.5938"/><ellipse cx="248" cy="60.5938" fill="none" rx="3" ry="3" style="stroke:#038048;stroke-width:1.0;"/><text fill="#000000" font-family="sans-serif" font-size="14" lengthAdjust="spacing" textLength="74" x="257" y="66.5889">id [PK] : Int</text><line style="stroke:#181818;stroke-width:1.0;" x1="238" x2="446" y1="73.8906" y2="73.8906"/><ellipse cx="248" cy="84.8906" fill="#000000" rx="3" ry="3" style="stroke:#000000;stroke-width:1.0;"/><text fill="#000000" font-family="sans-serif" font-size="14" lengthAdjust="spacing" textLength="89" x="257" y="90.8857">email : String</text><text fill="#000000" font-family="sans-serif" font-size="14" lengthAdjust="spacing" textLength="92" x="257" y="107.1826">name : String</text><ellipse cx="248" cy="117.4844" fill="#000000" rx="3" ry="3" style="stroke:#000000;stroke-width:1.0;"/><text fill="#000000" font-family="sans-serif" font-size="14" lengthAdjust="spacing" textLength="153" x="257" y="123.4795">languages : Language</text><ellipse cx="248" cy="133.7813" fill="#000000" rx="3" ry="3" style="stroke:#000000;stroke-width:1.0;"/><text fill="#000000" font-family="sans-serif" font-size="14" lengthAdjust="spacing" textLength="153" x="257" y="139.7764">created_at : DateTime</text><ellipse cx="248" cy="150.0781" fill="#000000" rx="3" ry="3" style="stroke:#000000;stroke-width:1.0;"/><text fill="#000000" font-family="sans-serif" font-size="14" lengthAdjust="spacing" textLength="158" x="257" y="156.0732">updated_at : DateTime</text><polygon fill="none" points="248,161.375,252,165.375,248,169.375,244,165.375" style="stroke:#B38D22;stroke-width:1.0;"/><text fill="#000000" font-family="sans-serif" font-size="14" lengthAdjust="spacing" textLength="137" x="257" y="172.3701">team_id : [FK] Team</text><polygon fill="none" points="248,177.6719,252,181.6719,248,185.6719,244,181.6719" style="stroke:#B38D22;stroke-width:1.0;"/><text fill="#000000" font-family="sans-serif" font-size="14" lengthAdjust="spacing" textLength="184" x="257" y="188.667">companyId : [FK] Company</text><polygon fill="none" points="248,193.9688,252,197.9688,248,201.9688,244,197.9688" style="stroke:#B38D22;stroke-width:1.0;"/><text fill="#000000" font-family="sans-serif" font-size="14" lengthAdjust="spacing" textLength="113" x="257" y="204.9639">roleId : [FK] Role</text></g><!--MD5=[dfb0845b8492ffe07b1ce50e003034d7]
class Team--><g id="elem_Team"><rect codeLine="37" fill="#F1F1F1" height="107.4844" id="Team" rx="2.5" ry="2.5" style="stroke:#181818;stroke-width:0.5;" width="184" x="142" y="413.5"/><ellipse cx="206.25" cy="434.7969" fill="#ADD1B2" rx="11" ry="11" style="stroke:#181818;stroke-width:1.0;"/><path d="M210.3594,440.7969 L202.6406,440.7969 L202.6406,428.4063 L210.3594,428.4063 L210.3594,430.5625 L205.0938,430.5625 L205.0938,433.2344 L209.8594,433.2344 L209.8594,435.3906 L205.0938,435.3906 L205.0938,438.6406 L210.3594,438.6406 L210.3594,440.7969 Z " fill="#000000"/><text fill="#000000" font-family="sans-serif" font-size="14" lengthAdjust="spacing" textLength="39" x="230.75" y="431.4951">Team</text><text fill="#000000" font-family="sans-serif" font-size="14" lengthAdjust="spacing" textLength="47" x="226.75" y="447.792">Teams</text><line style="stroke:#181818;stroke-width:0.5;" x1="143" x2="325" y1="456.0938" y2="456.0938"/><ellipse cx="153" cy="467.0938" fill="none" rx="3" ry="3" style="stroke:#038048;stroke-width:1.0;"/><text fill="#000000" font-family="sans-serif" font-size="14" lengthAdjust="spacing" textLength="97" x="162" y="473.0889">id [PK] : String</text><line style="stroke:#181818;stroke-width:1.0;" x1="143" x2="325" y1="480.3906" y2="480.3906"/><ellipse cx="153" cy="491.3906" fill="#000000" rx="3" ry="3" style="stroke:#000000;stroke-width:1.0;"/><text fill="#000000" font-family="sans-serif" font-size="14" lengthAdjust="spacing" textLength="153" x="162" y="497.3857">created_at : DateTime</text><ellipse cx="153" cy="507.6875" fill="#000000" rx="3" ry="3" style="stroke:#000000;stroke-width:1.0;"/><text fill="#000000" font-family="sans-serif" font-size="14" lengthAdjust="spacing" textLength="158" x="162" y="513.6826">updated_at : DateTime</text></g><!--MD5=[02e4b9b7573f1156f41e60aa5b4e25a4]
class Company--><g id="elem_Company"><rect codeLine="44" fill="#F1F1F1" height="123.7813" id="Company" rx="2.5" ry="2.5" style="stroke:#181818;stroke-width:0.5;" width="184" x="214" y="722"/><ellipse cx="269.25" cy="743.2969" fill="#ADD1B2" rx="11" ry="11" style="stroke:#181818;stroke-width:1.0;"/><path d="M273.3594,749.2969 L265.6406,749.2969 L265.6406,736.9063 L273.3594,736.9063 L273.3594,739.0625 L268.0938,739.0625 L268.0938,741.7344 L272.8594,741.7344 L272.8594,743.8906 L268.0938,743.8906 L268.0938,747.1406 L273.3594,747.1406 L273.3594,749.2969 Z " fill="#000000"/><text fill="#000000" font-family="sans-serif" font-size="14" lengthAdjust="spacing" textLength="65" x="289.75" y="739.9951">Company</text><text fill="#000000" font-family="sans-serif" font-size="14" lengthAdjust="spacing" textLength="28" x="308.25" y="756.292">会社</text><line style="stroke:#181818;stroke-width:0.5;" x1="215" x2="397" y1="764.5938" y2="764.5938"/><ellipse cx="225" cy="775.5938" fill="none" rx="3" ry="3" style="stroke:#038048;stroke-width:1.0;"/><text fill="#000000" font-family="sans-serif" font-size="14" lengthAdjust="spacing" textLength="97" x="234" y="781.5889">id [PK] : String</text><line style="stroke:#181818;stroke-width:1.0;" x1="215" x2="397" y1="788.8906" y2="788.8906"/><ellipse cx="225" cy="799.8906" fill="#000000" rx="3" ry="3" style="stroke:#000000;stroke-width:1.0;"/><text fill="#000000" font-family="sans-serif" font-size="14" lengthAdjust="spacing" textLength="84" x="234" y="805.8857">state : State</text><ellipse cx="225" cy="816.1875" fill="#000000" rx="3" ry="3" style="stroke:#000000;stroke-width:1.0;"/><text fill="#000000" font-family="sans-serif" font-size="14" lengthAdjust="spacing" textLength="153" x="234" y="822.1826">created_at : DateTime</text><ellipse cx="225" cy="832.4844" fill="#000000" rx="3" ry="3" style="stroke:#000000;stroke-width:1.0;"/><text fill="#000000" font-family="sans-serif" font-size="14" lengthAdjust="spacing" textLength="158" x="234" y="838.4795">updated_at : DateTime</text></g><!--MD5=[a3638c1e5b65d287ecad7f06f5c0f212]
class Role--><g id="elem_Role"><rect codeLine="52" fill="#F1F1F1" height="80.5938" id="Role" rx="2.5" ry="2.5" style="stroke:#181818;stroke-width:0.5;" width="123" x="432.5" y="426.5"/><ellipse cx="474.5" cy="442.5" fill="#ADD1B2" rx="11" ry="11" style="stroke:#181818;stroke-width:1.0;"/><path d="M478.6094,448.5 L470.8906,448.5 L470.8906,436.1094 L478.6094,436.1094 L478.6094,438.2656 L473.3438,438.2656 L473.3438,440.9375 L478.1094,440.9375 L478.1094,443.0938 L473.3438,443.0938 L473.3438,446.3438 L478.6094,446.3438 L478.6094,448.5 Z " fill="#000000"/><text fill="#000000" font-family="sans-serif" font-size="14" lengthAdjust="spacing" textLength="31" x="494.5" y="447.3467">Role</text><line style="stroke:#181818;stroke-width:0.5;" x1="433.5" x2="554.5" y1="458.5" y2="458.5"/><ellipse cx="443.5" cy="469.5" fill="none" rx="3" ry="3" style="stroke:#038048;stroke-width:1.0;"/><text fill="#000000" font-family="sans-serif" font-size="14" lengthAdjust="spacing" textLength="97" x="452.5" y="475.4951">id [PK] : String</text><line style="stroke:#181818;stroke-width:1.0;" x1="433.5" x2="554.5" y1="482.7969" y2="482.7969"/><ellipse cx="443.5" cy="493.7969" fill="#000000" rx="3" ry="3" style="stroke:#000000;stroke-width:1.0;"/><text fill="#000000" font-family="sans-serif" font-size="14" lengthAdjust="spacing" textLength="92" x="452.5" y="499.792">name : String</text></g><!--MD5=[3c85ed1c74d2fd8e0488dff9cf058b2b]
link User to Team--><g id="link_User_Team"><path codeLine="59" d="M281.5,220.42 C281.5,220.42 281.5,405.3 281.5,405.3 " fill="none" id="User-Team" style="stroke:#181818;stroke-width:1.0;"/><line style="stroke:#181818;stroke-width:1.0;" x1="285.5" x2="277.5" y1="409.3" y2="409.3"/><line style="stroke:#181818;stroke-width:1.0;" x1="285.5" x2="277.5" y1="406.3" y2="406.3"/><line style="stroke:#181818;stroke-width:1.0;" x1="281.5" x2="281.5" y1="405.3" y2="413.3"/><line style="stroke:#181818;stroke-width:1.0;" x1="281.5" x2="275.5" y1="220.42" y2="212.42"/><line style="stroke:#181818;stroke-width:1.0;" x1="281.5" x2="287.5" y1="220.42" y2="212.42"/><line style="stroke:#181818;stroke-width:1.0;" x1="281.5" x2="281.5" y1="220.42" y2="212.42"/><ellipse cx="281.5" cy="226.42" fill="none" rx="4" ry="4" style="stroke:#181818;stroke-width:1.0;"/></g><!--MD5=[466bf63bac18688930d4e31d035f36ce]
link User to Company--><g id="link_User_Company"><path codeLine="60" d="M362,220.31 C362,220.31 362,713.68 362,713.68 " fill="none" id="User-Company" style="stroke:#181818;stroke-width:1.0;"/><line style="stroke:#181818;stroke-width:1.0;" x1="362" x2="362" y1="710.68" y2="721.68"/><ellipse cx="362" cy="710.68" fill="none" rx="4" ry="4" style="stroke:#181818;stroke-width:1.0;"/><line style="stroke:#181818;stroke-width:1.0;" x1="366" x2="358" y1="717.68" y2="717.68"/><line style="stroke:#181818;stroke-width:1.0;" x1="362" x2="356" y1="220.31" y2="212.31"/><line style="stroke:#181818;stroke-width:1.0;" x1="362" x2="368" y1="220.31" y2="212.31"/><line style="stroke:#181818;stroke-width:1.0;" x1="362" x2="362" y1="220.31" y2="212.31"/><ellipse cx="362" cy="226.31" fill="none" rx="4" ry="4" style="stroke:#181818;stroke-width:1.0;"/></g><!--MD5=[70c37dc9bfbc8656942103c36f1181e4]
link User to Role--><g id="link_User_Role"><path codeLine="61" d="M439.75,220.42 C439.75,220.42 439.75,418.13 439.75,418.13 " fill="none" id="User-Role" style="stroke:#181818;stroke-width:1.0;"/><line style="stroke:#181818;stroke-width:1.0;" x1="439.75" x2="439.75" y1="415.13" y2="426.13"/><ellipse cx="439.75" cy="415.13" fill="none" rx="4" ry="4" style="stroke:#181818;stroke-width:1.0;"/><line style="stroke:#181818;stroke-width:1.0;" x1="443.75" x2="435.75" y1="422.13" y2="422.13"/><line style="stroke:#181818;stroke-width:1.0;" x1="439.75" x2="433.75" y1="220.42" y2="212.42"/><line style="stroke:#181818;stroke-width:1.0;" x1="439.75" x2="445.75" y1="220.42" y2="212.42"/><line style="stroke:#181818;stroke-width:1.0;" x1="439.75" x2="439.75" y1="220.42" y2="212.42"/><ellipse cx="439.75" cy="226.42" fill="none" rx="4" ry="4" style="stroke:#181818;stroke-width:1.0;"/></g><!--MD5=[f456df819ce8f0370653f495491802b3]
link Team to Company--><g id="link_Team_Company"><path codeLine="63" d="M270,528.77 C270,528.77 270,713.79 270,713.79 " fill="none" id="Team-Company" style="stroke:#181818;stroke-width:1.0;"/><line style="stroke:#181818;stroke-width:1.0;" x1="270" x2="276" y1="713.79" y2="721.79"/><line style="stroke:#181818;stroke-width:1.0;" x1="270" x2="264" y1="713.79" y2="721.79"/><line style="stroke:#181818;stroke-width:1.0;" x1="270" x2="270" y1="713.79" y2="721.79"/><ellipse cx="270" cy="707.79" fill="none" rx="4" ry="4" style="stroke:#181818;stroke-width:1.0;"/><line style="stroke:#181818;stroke-width:1.0;" x1="270" x2="264" y1="528.77" y2="520.77"/><line style="stroke:#181818;stroke-width:1.0;" x1="270" x2="276" y1="528.77" y2="520.77"/><line style="stroke:#181818;stroke-width:1.0;" x1="270" x2="270" y1="528.77" y2="520.77"/><ellipse cx="270" cy="534.77" fill="none" rx="4" ry="4" style="stroke:#181818;stroke-width:1.0;"/></g><!--MD5=[9c7b1d6dcdcc3641e0b71ffbe6371b73]
link User to Language--><g id="link_User_Language"><path codeLine="65" d="M228.86,202 C228.86,202 83.5,202 83.5,202 C83.5,202 83.5,385.89 83.5,385.89 " fill="none" id="User-Language" style="stroke:#181818;stroke-width:1.0;"/><line style="stroke:#181818;stroke-width:1.0;" x1="83.5" x2="89.5" y1="385.89" y2="393.89"/><line style="stroke:#181818;stroke-width:1.0;" x1="83.5" x2="77.5" y1="385.89" y2="393.89"/><line style="stroke:#181818;stroke-width:1.0;" x1="83.5" x2="83.5" y1="385.89" y2="393.89"/><line style="stroke:#181818;stroke-width:1.0;" x1="87.5" x2="79.5" y1="383.89" y2="383.89"/><line style="stroke:#181818;stroke-width:1.0;" x1="225.86" x2="236.86" y1="202" y2="202"/><ellipse cx="225.86" cy="202" fill="none" rx="4" ry="4" style="stroke:#181818;stroke-width:1.0;"/><line style="stroke:#181818;stroke-width:1.0;" x1="232.86" x2="232.86" y1="198" y2="206"/></g><!--MD5=[235dbd4a8cc358fbd47a76d5ec603d02]
link Company to State--><g id="link_Company_State"><path codeLine="66" d="M306,854.03 C306,854.03 306,1019.61 306,1019.61 " fill="none" id="Company-State" style="stroke:#181818;stroke-width:1.0;"/><line style="stroke:#181818;stroke-width:1.0;" x1="310" x2="302" y1="1023.61" y2="1023.61"/><line style="stroke:#181818;stroke-width:1.0;" x1="310" x2="302" y1="1020.61" y2="1020.61"/><line style="stroke:#181818;stroke-width:1.0;" x1="306" x2="306" y1="1019.61" y2="1027.61"/><line style="stroke:#181818;stroke-width:1.0;" x1="306" x2="306" y1="857.03" y2="846.03"/><ellipse cx="306" cy="857.03" fill="none" rx="4" ry="4" style="stroke:#181818;stroke-width:1.0;"/><line style="stroke:#181818;stroke-width:1.0;" x1="302" x2="310" y1="850.03" y2="850.03"/></g><!--MD5=[af8a502894a8019bc29aab1e99bb706e]
@startuml erd
skinparam linetype ortho
enum "NotificationType" as NotificationType {
  newPosts
  newComments
  newFollowers
  reply
  heartOnPost
  heartOnComment
  heartOnReply
}
enum "Language" as Language {
  Typescript
  Javascript
  Rust
  Go
  Python
  Cpp
}
enum "State" as State {
  Active
  Pending
  Banned
}
entity "User\nユーザ" as User {
+ id [PK] : Int 
- -
  * email : String
  name : String
  * languages : Language
  * created_at : DateTime
  * updated_at : DateTime
  # team_id : [FK] Team
  # companyId : [FK] Company
  # roleId : [FK] Role
}

entity "Team\nTeams" as Team {
+ id [PK] : String 
- -
  * created_at : DateTime
  * updated_at : DateTime
}

entity "Company\n会社" as Company {
+ id [PK] : String 
- -
  * state : State
  * created_at : DateTime
  * updated_at : DateTime
}

entity "Role" as Role {
+ id [PK] : String 
- -
  * name : String
}

' Relations
User }o- - - -|| Team
User }o- - - -o| Company
User }o- - - -o| Role
' ManyToMany Relations
Team }o- - - -o{ Company
' enum relations
User |o- - - -|{ Language
Company |o- - - -|| State
@enduml

@startuml erd
skinparam linetype ortho
enum "NotificationType" as NotificationType {
  newPosts
  newComments
  newFollowers
  reply
  heartOnPost
  heartOnComment
  heartOnReply
}
enum "Language" as Language {
  Typescript
  Javascript
  Rust
  Go
  Python
  Cpp
}
enum "State" as State {
  Active
  Pending
  Banned
}
entity "User\nユーザ" as User {
+ id [PK] : Int 
- -
  * email : String
  name : String
  * languages : Language
  * created_at : DateTime
  * updated_at : DateTime
  # team_id : [FK] Team
  # companyId : [FK] Company
  # roleId : [FK] Role
}

entity "Team\nTeams" as Team {
+ id [PK] : String 
- -
  * created_at : DateTime
  * updated_at : DateTime
}

entity "Company\n会社" as Company {
+ id [PK] : String 
- -
  * state : State
  * created_at : DateTime
  * updated_at : DateTime
}

entity "Role" as Role {
+ id [PK] : String 
- -
  * name : String
}

User }o- - - -|| Team
User }o- - - -o| Company
User }o- - - -o| Role
Team }o- - - -o{ Company
User |o- - - -|{ Language
Company |o- - - -|| State
@enduml

PlantUML version 1.2022.6(Tue Jun 21 17:34:49 UTC 2022)
(GPL source distribution)
Java Runtime: OpenJDK Runtime Environment
JVM: OpenJDK 64-Bit Server VM
Default Encoding: UTF-8
Language: en
Country: null
--></g></svg>