<svg xmlns="http://www.w3.org/2000/svg" xmlns:xlink="http://www.w3.org/1999/xlink" contentStyleType="text/css" height="1131px" preserveAspectRatio="none" style="width:561px;height:1131px;background:#FFFFFF;" version="1.1" viewBox="0 0 561 1131" width="561px" zoomAndPan="magnify"><defs/><g><!--class NotificationType--><g id="elem_NotificationType"><rect codeLine="2" fill="#F1F1F1" height="162.0781" id="NotificationType" rx="2.5" ry="2.5" style="stroke:#181818;stroke-width:0.5;" width="142" x="25" y="28.6"/><ellipse cx="40" cy="44.6" fill="#EB937F" rx="11" ry="11" style="stroke:#181818;stroke-width:1.0;"/><path d="M44.1094,50.6 L36.3906,50.6 L36.3906,38.2094 L44.1094,38.2094 L44.1094,40.3656 L38.8438,40.3656 L38.8438,43.0375 L43.6094,43.0375 L43.6094,45.1938 L38.8438,45.1938 L38.8438,48.4438 L44.1094,48.4438 L44.1094,50.6 Z " fill="#000000"/><text fill="#000000" font-family="sans-serif" font-size="14" lengthAdjust="spacing" textLength="110" x="54" y="49.4467">NotificationType</text><line style="stroke:#181818;stroke-width:0.5;" x1="26" x2="166" y1="60.6" y2="60.6"/><text fill="#000000" font-family="sans-serif" font-size="14" lengthAdjust="spacing" textLength="68" x="31" y="77.5951">newPosts</text><text fill="#000000" font-family="sans-serif" font-size="14" lengthAdjust="spacing" textLength="105" x="31" y="93.892">newComments</text><text fill="#000000" font-family="sans-serif" font-size="14" lengthAdjust="spacing" textLength="94" x="31" y="110.1889">newFollowers</text><text fill="#000000" font-family="sans-serif" font-size="14" lengthAdjust="spacing" textLength="33" x="31" y="126.4857">reply</text><text fill="#000000" font-family="sans-serif" font-size="14" lengthAdjust="spacing" textLength="87" x="31" y="142.7826">heartOnPost</text><text fill="#000000" font-family="sans-serif" font-size="14" lengthAdjust="spacing" textLength="124" x="31" y="159.0795">heartOnComment</text><text fill="#000000" font-family="sans-serif" font-size="14" lengthAdjust="spacing" textLength="94" x="31" y="175.3764">heartOnReply</text><line style="stroke:#181818;stroke-width:0.5;" x1="26" x2="166" y1="182.6781" y2="182.6781"/></g><!--class Language--><g id="elem_Language"><rect codeLine="11" fill="#F1F1F1" height="145.7813" id="Language" rx="2.5" ry="2.5" style="stroke:#181818;stroke-width:0.5;" width="100" x="7" y="394.27"/><ellipse cx="22" cy="410.27" fill="#EB937F" rx="11" ry="11" style="stroke:#181818;stroke-width:1.0;"/><path d="M26.1094,416.27 L18.3906,416.27 L18.3906,403.8794 L26.1094,403.8794 L26.1094,406.0356 L20.8438,406.0356 L20.8438,408.7075 L25.6094,408.7075 L25.6094,410.8638 L20.8438,410.8638 L20.8438,414.1138 L26.1094,414.1138 L26.1094,416.27 Z " fill="#000000"/><text fill="#000000" font-family="sans-serif" font-size="14" lengthAdjust="spacing" textLength="68" x="36" y="415.1167">Language</text><line style="stroke:#181818;stroke-width:0.5;" x1="8" x2="106" y1="426.27" y2="426.27"/><text fill="#000000" font-family="sans-serif" font-size="14" lengthAdjust="spacing" textLength="72" x="13" y="443.2651">Typescript</text><text fill="#000000" font-family="sans-serif" font-size="14" lengthAdjust="spacing" textLength="64" x="13" y="459.562">Javascript</text><text fill="#000000" font-family="sans-serif" font-size="14" lengthAdjust="spacing" textLength="32" x="13" y="475.8589">Rust</text><text fill="#000000" font-family="sans-serif" font-size="14" lengthAdjust="spacing" textLength="20" x="13" y="492.1557">Go</text><text fill="#000000" font-family="sans-serif" font-size="14" lengthAdjust="spacing" textLength="48" x="13" y="508.4526">Python</text><text fill="#000000" font-family="sans-serif" font-size="14" lengthAdjust="spacing" textLength="28" x="13" y="524.7495">Cpp</text><line style="stroke:#181818;stroke-width:0.5;" x1="8" x2="106" y1="532.0513" y2="532.0513"/></g><!--class State--><g id="elem_State"><rect codeLine="19" fill="#F1F1F1" height="96.8906" id="State" rx="2.5" ry="2.5" style="stroke:#181818;stroke-width:0.5;" width="69" x="290.5" y="1027.83"/><ellipse cx="305.95" cy="1043.83" fill="#EB937F" rx="11" ry="11" style="stroke:#181818;stroke-width:1.0;"/><path d="M310.0594,1049.83 L302.3406,1049.83 L302.3406,1037.4394 L310.0594,1037.4394 L310.0594,1039.5956 L304.7938,1039.5956 L304.7938,1042.2675 L309.5594,1042.2675 L309.5594,1044.4238 L304.7938,1044.4238 L304.7938,1047.6738 L310.0594,1047.6738 L310.0594,1049.83 Z " fill="#000000"/><text fill="#000000" font-family="sans-serif" font-size="14" lengthAdjust="spacing" textLength="36" x="320.05" y="1048.6767">State</text><line style="stroke:#181818;stroke-width:0.5;" x1="291.5" x2="358.5" y1="1059.83" y2="1059.83"/><text fill="#000000" font-family="sans-serif" font-size="14" lengthAdjust="spacing" textLength="41" x="296.5" y="1076.8251">Active</text><text fill="#000000" font-family="sans-serif" font-size="14" lengthAdjust="spacing" textLength="57" x="296.5" y="1093.122">Pending</text><text fill="#000000" font-family="sans-serif" font-size="14" lengthAdjust="spacing" textLength="54" x="296.5" y="1109.4189">Banned</text><line style="stroke:#181818;stroke-width:0.5;" x1="291.5" x2="358.5" y1="1116.7206" y2="1116.7206"/></g><!--class User--><g id="elem_User"><rect codeLine="24" fill="#F1F1F1" height="205.2656" id="User" rx="2.5" ry="2.5" style="stroke:#181818;stroke-width:0.5;" width="210" x="202" y="7"/><ellipse cx="281.75" cy="28.2969" fill="#ADD1B2" rx="11" ry="11" style="stroke:#181818;stroke-width:1.0;"/><path d="M285.8594,34.2969 L278.1406,34.2969 L278.1406,21.9063 L285.8594,21.9063 L285.8594,24.0625 L280.5938,24.0625 L280.5938,26.7344 L285.3594,26.7344 L285.3594,28.8906 L280.5938,28.8906 L280.5938,32.1406 L285.8594,32.1406 L285.8594,34.2969 Z " fill="#000000"/><text fill="#000000" font-family="sans-serif" font-size="14" lengthAdjust="spacing" textLength="32" x="307.25" y="24.9951">User</text><text fill="#000000" font-family="sans-serif" font-size="14" lengthAdjust="spacing" textLength="42" x="302.25" y="41.292">&#12518;&#12540;&#12470;</text><line style="stroke:#181818;stroke-width:0.5;" x1="203" x2="411" y1="49.5938" y2="49.5938"/><ellipse cx="213" cy="63.2422" fill="none" rx="3" ry="3" style="stroke:#038048;stroke-width:1.0;"/><text fill="#000000" font-family="sans-serif" font-size="14" lengthAdjust="spacing" textLength="74" x="222" y="66.5889">id [PK] : Int</text><line style="stroke:#181818;stroke-width:1.0;" x1="203" x2="411" y1="73.8906" y2="73.8906"/><ellipse cx="213" cy="87.5391" fill="#000000" rx="3" ry="3" style="stroke:#000000;stroke-width:1.0;"/><text fill="#000000" font-family="sans-serif" font-size="14" lengthAdjust="spacing" textLength="122" x="222" y="90.8857">email : [UK] String</text><text fill="#000000" font-family="sans-serif" font-size="14" lengthAdjust="spacing" textLength="92" x="222" y="107.1826">name : String</text><ellipse cx="213" cy="120.1328" fill="#000000" rx="3" ry="3" style="stroke:#000000;stroke-width:1.0;"/><text fill="#000000" font-family="sans-serif" font-size="14" lengthAdjust="spacing" textLength="153" x="222" y="123.4795">languages : Language</text><ellipse cx="213" cy="136.4297" fill="#000000" rx="3" ry="3" style="stroke:#000000;stroke-width:1.0;"/><text fill="#000000" font-family="sans-serif" font-size="14" lengthAdjust="spacing" textLength="153" x="222" y="139.7764">created_at : DateTime</text><ellipse cx="213" cy="152.7266" fill="#000000" rx="3" ry="3" style="stroke:#000000;stroke-width:1.0;"/><text fill="#000000" font-family="sans-serif" font-size="14" lengthAdjust="spacing" textLength="158" x="222" y="156.0732">updated_at : DateTime</text><polygon fill="none" points="213,164.0234,217,168.0234,213,172.0234,209,168.0234" style="stroke:#B38D22;stroke-width:1.0;"/><text fill="#000000" font-family="sans-serif" font-size="14" lengthAdjust="spacing" textLength="137" x="222" y="172.3701">team_id : [FK] Team</text><polygon fill="none" points="213,180.3203,217,184.3203,213,188.3203,209,184.3203" style="stroke:#B38D22;stroke-width:1.0;"/><text fill="#000000" font-family="sans-serif" font-size="14" lengthAdjust="spacing" textLength="184" x="222" y="188.667">companyId : [FK] Company</text><polygon fill="none" points="213,196.6172,217,200.6172,213,204.6172,209,200.6172" style="stroke:#B38D22;stroke-width:1.0;"/><text fill="#000000" font-family="sans-serif" font-size="14" lengthAdjust="spacing" textLength="113" x="222" y="204.9639">roleId : [FK] Role</text></g><!--class Team--><g id="elem_Team"><rect codeLine="37" fill="#F1F1F1" height="107.4844" id="Team" rx="2.5" ry="2.5" style="stroke:#181818;stroke-width:0.5;" width="184" x="142" y="413.42"/><ellipse cx="206.25" cy="434.7169" fill="#ADD1B2" rx="11" ry="11" style="stroke:#181818;stroke-width:1.0;"/><path d="M210.3594,440.7169 L202.6406,440.7169 L202.6406,428.3263 L210.3594,428.3263 L210.3594,430.4825 L205.0938,430.4825 L205.0938,433.1544 L209.8594,433.1544 L209.8594,435.3106 L205.0938,435.3106 L205.0938,438.5606 L210.3594,438.5606 L210.3594,440.7169 Z " fill="#000000"/><text fill="#000000" font-family="sans-serif" font-size="14" lengthAdjust="spacing" textLength="39" x="230.75" y="431.4151">Team</text><text fill="#000000" font-family="sans-serif" font-size="14" lengthAdjust="spacing" textLength="47" x="226.75" y="447.712">Teams</text><line style="stroke:#181818;stroke-width:0.5;" x1="143" x2="325" y1="456.0138" y2="456.0138"/><ellipse cx="153" cy="469.6622" fill="none" rx="3" ry="3" style="stroke:#038048;stroke-width:1.0;"/><text fill="#000000" font-family="sans-serif" font-size="14" lengthAdjust="spacing" textLength="97" x="162" y="473.0089">id [PK] : String</text><line style="stroke:#181818;stroke-width:1.0;" x1="143" x2="325" y1="480.3106" y2="480.3106"/><ellipse cx="153" cy="493.9591" fill="#000000" rx="3" ry="3" style="stroke:#000000;stroke-width:1.0;"/><text fill="#000000" font-family="sans-serif" font-size="14" lengthAdjust="spacing" textLength="153" x="162" y="497.3057">created_at : DateTime</text><ellipse cx="153" cy="510.2559" fill="#000000" rx="3" ry="3" style="stroke:#000000;stroke-width:1.0;"/><text fill="#000000" font-family="sans-serif" font-size="14" lengthAdjust="spacing" textLength="158" x="162" y="513.6026">updated_at : DateTime</text></g><!--class Company--><g id="elem_Company"><rect codeLine="44" fill="#F1F1F1" height="123.7813" id="Company" rx="2.5" ry="2.5" style="stroke:#181818;stroke-width:0.5;" width="184" x="233" y="722.05"/><ellipse cx="288.25" cy="743.3469" fill="#ADD1B2" rx="11" ry="11" style="stroke:#181818;stroke-width:1.0;"/><path d="M292.3594,749.3469 L284.6406,749.3469 L284.6406,736.9563 L292.3594,736.9563 L292.3594,739.1125 L287.0938,739.1125 L287.0938,741.7844 L291.8594,741.7844 L291.8594,743.9406 L287.0938,743.9406 L287.0938,747.1906 L292.3594,747.1906 L292.3594,749.3469 Z " fill="#000000"/><text fill="#000000" font-family="sans-serif" font-size="14" lengthAdjust="spacing" textLength="65" x="308.75" y="740.0451">Company</text><text fill="#000000" font-family="sans-serif" font-size="14" lengthAdjust="spacing" textLength="28" x="327.25" y="756.342">&#20250;&#31038;</text><line style="stroke:#181818;stroke-width:0.5;" x1="234" x2="416" y1="764.6438" y2="764.6438"/><ellipse cx="244" cy="778.2922" fill="none" rx="3" ry="3" style="stroke:#038048;stroke-width:1.0;"/><text fill="#000000" font-family="sans-serif" font-size="14" lengthAdjust="spacing" textLength="97" x="253" y="781.6389">id [PK] : String</text><line style="stroke:#181818;stroke-width:1.0;" x1="234" x2="416" y1="788.9406" y2="788.9406"/><ellipse cx="244" cy="802.5891" fill="#000000" rx="3" ry="3" style="stroke:#000000;stroke-width:1.0;"/><text fill="#000000" font-family="sans-serif" font-size="14" lengthAdjust="spacing" textLength="84" x="253" y="805.9357">state : State</text><ellipse cx="244" cy="818.8859" fill="#000000" rx="3" ry="3" style="stroke:#000000;stroke-width:1.0;"/><text fill="#000000" font-family="sans-serif" font-size="14" lengthAdjust="spacing" textLength="153" x="253" y="822.2326">created_at : DateTime</text><ellipse cx="244" cy="835.1828" fill="#000000" rx="3" ry="3" style="stroke:#000000;stroke-width:1.0;"/><text fill="#000000" font-family="sans-serif" font-size="14" lengthAdjust="spacing" textLength="158" x="253" y="838.5295">updated_at : DateTime</text></g><!--class Role--><g id="elem_Role"><rect codeLine="52" fill="#F1F1F1" height="80.5938" id="Role" rx="2.5" ry="2.5" style="stroke:#181818;stroke-width:0.5;" width="123" x="431.5" y="426.86"/><ellipse cx="473.5" cy="442.86" fill="#ADD1B2" rx="11" ry="11" style="stroke:#181818;stroke-width:1.0;"/><path d="M477.6094,448.86 L469.8906,448.86 L469.8906,436.4694 L477.6094,436.4694 L477.6094,438.6256 L472.3438,438.6256 L472.3438,441.2975 L477.1094,441.2975 L477.1094,443.4538 L472.3438,443.4538 L472.3438,446.7038 L477.6094,446.7038 L477.6094,448.86 Z " fill="#000000"/><text fill="#000000" font-family="sans-serif" font-size="14" lengthAdjust="spacing" textLength="31" x="493.5" y="447.7067">Role</text><line style="stroke:#181818;stroke-width:0.5;" x1="432.5" x2="553.5" y1="458.86" y2="458.86"/><ellipse cx="442.5" cy="472.5084" fill="none" rx="3" ry="3" style="stroke:#038048;stroke-width:1.0;"/><text fill="#000000" font-family="sans-serif" font-size="14" lengthAdjust="spacing" textLength="97" x="451.5" y="475.8551">id [PK] : String</text><line style="stroke:#181818;stroke-width:1.0;" x1="432.5" x2="553.5" y1="483.1569" y2="483.1569"/><ellipse cx="442.5" cy="496.8053" fill="#000000" rx="3" ry="3" style="stroke:#000000;stroke-width:1.0;"/><text fill="#000000" font-family="sans-serif" font-size="14" lengthAdjust="spacing" textLength="92" x="451.5" y="500.152">name : String</text></g><!--link User to Team--><g id="link_User_Team"><path codeLine="59" d="M264,230.56 C264,295.96 264,351.97 264,404.96 " fill="none" id="User-Team" style="stroke:#181818;stroke-width:1.0;"/><line style="stroke:#181818;stroke-width:1.0;" x1="264" x2="258" y1="220.56" y2="212.56"/><line style="stroke:#181818;stroke-width:1.0;" x1="264" x2="270" y1="220.56" y2="212.56"/><line style="stroke:#181818;stroke-width:1.0;" x1="264" x2="264" y1="220.56" y2="212.56"/><ellipse cx="264" cy="226.56" fill="none" rx="4" ry="4" style="stroke:#181818;stroke-width:1.0;"/><line style="stroke:#181818;stroke-width:1.0;" x1="268" x2="260" y1="408.96" y2="408.96"/><line style="stroke:#181818;stroke-width:1.0;" x1="268" x2="260" y1="405.96" y2="405.96"/><line style="stroke:#181818;stroke-width:1.0;" x1="264" x2="264" y1="404.96" y2="412.96"/><text fill="#000000" font-family="sans-serif" font-size="13" lengthAdjust="spacing" textLength="52" x="211" y="308.8269">team_id</text></g><!--link User to Company--><g id="link_User_Company"><path codeLine="60" d="M354.67,230.41 C354.67,372.17 354.67,590.34 354.67,706.64 " fill="none" id="User-Company" style="stroke:#181818;stroke-width:1.0;"/><line style="stroke:#181818;stroke-width:1.0;" x1="354.67" x2="348.67" y1="220.41" y2="212.41"/><line style="stroke:#181818;stroke-width:1.0;" x1="354.67" x2="360.67" y1="220.41" y2="212.41"/><line style="stroke:#181818;stroke-width:1.0;" x1="354.67" x2="354.67" y1="220.41" y2="212.41"/><ellipse cx="354.67" cy="226.41" fill="none" rx="4" ry="4" style="stroke:#181818;stroke-width:1.0;"/><line style="stroke:#181818;stroke-width:1.0;" x1="354.67" x2="354.67" y1="710.64" y2="721.64"/><ellipse cx="354.67" cy="710.64" fill="none" rx="4" ry="4" style="stroke:#181818;stroke-width:1.0;"/><line style="stroke:#181818;stroke-width:1.0;" x1="358.67" x2="350.67" y1="717.64" y2="717.64"/><text fill="#000000" font-family="sans-serif" font-size="13" lengthAdjust="spacing" textLength="70" x="355.67" y="463.0969">companyId</text></g><!--link User to Role--><g id="link_User_Role"><path codeLine="61" d="M383.33,230.73 C383.33,336.51 383.33,467.72 383.33,467.72 C383.33,467.72 391.24,467.72 416.12,467.72 " fill="none" id="User-Role" style="stroke:#181818;stroke-width:1.0;"/><line style="stroke:#181818;stroke-width:1.0;" x1="383.33" x2="377.33" y1="220.73" y2="212.73"/><line style="stroke:#181818;stroke-width:1.0;" x1="383.33" x2="389.33" y1="220.73" y2="212.73"/><line style="stroke:#181818;stroke-width:1.0;" x1="383.33" x2="383.33" y1="220.73" y2="212.73"/><ellipse cx="383.33" cy="226.73" fill="none" rx="4" ry="4" style="stroke:#181818;stroke-width:1.0;"/><line style="stroke:#181818;stroke-width:1.0;" x1="420.12" x2="431.12" y1="467.72" y2="467.72"/><ellipse cx="420.12" cy="467.72" fill="none" rx="4" ry="4" style="stroke:#181818;stroke-width:1.0;"/><line style="stroke:#181818;stroke-width:1.0;" x1="427.12" x2="427.12" y1="463.72" y2="471.72"/><text fill="#000000" font-family="sans-serif" font-size="13" lengthAdjust="spacing" textLength="35" x="347.33" y="360.1769">roleId</text></g><!--link Team to Company--><g id="link_Team_Company"><path codeLine="63" d="M279.5,539.25 C279.5,594.83 279.5,645.24 279.5,703.64 " fill="none" id="Team-Company" style="stroke:#181818;stroke-width:1.0;"/><line style="stroke:#181818;stroke-width:1.0;" x1="279.5" x2="273.5" y1="529.25" y2="521.25"/><line style="stroke:#181818;stroke-width:1.0;" x1="279.5" x2="285.5" y1="529.25" y2="521.25"/><line style="stroke:#181818;stroke-width:1.0;" x1="279.5" x2="279.5" y1="529.25" y2="521.25"/><ellipse cx="279.5" cy="535.25" fill="none" rx="4" ry="4" style="stroke:#181818;stroke-width:1.0;"/><line style="stroke:#181818;stroke-width:1.0;" x1="279.5" x2="285.5" y1="713.64" y2="721.64"/><line style="stroke:#181818;stroke-width:1.0;" x1="279.5" x2="273.5" y1="713.64" y2="721.64"/><line style="stroke:#181818;stroke-width:1.0;" x1="279.5" x2="279.5" y1="713.64" y2="721.64"/><ellipse cx="279.5" cy="707.64" fill="none" rx="4" ry="4" style="stroke:#181818;stroke-width:1.0;"/></g><!--link User to Language--><g id="link_User_Language"><path codeLine="65" d="M186.64,201.72 C121.8,201.72 66,201.72 66,201.72 C66,201.72 66,307.35 66,385.92 " fill="none" id="User-Language" style="stroke:#181818;stroke-width:1.0;"/><line style="stroke:#181818;stroke-width:1.0;" x1="190.64" x2="201.64" y1="201.72" y2="201.72"/><ellipse cx="190.64" cy="201.72" fill="none" rx="4" ry="4" style="stroke:#181818;stroke-width:1.0;"/><line style="stroke:#181818;stroke-width:1.0;" x1="197.64" x2="197.64" y1="197.72" y2="205.72"/><line style="stroke:#181818;stroke-width:1.0;" x1="66" x2="72" y1="385.92" y2="393.92"/><line style="stroke:#181818;stroke-width:1.0;" x1="66" x2="60" y1="385.92" y2="393.92"/><line style="stroke:#181818;stroke-width:1.0;" x1="66" x2="66" y1="385.92" y2="393.92"/><line style="stroke:#181818;stroke-width:1.0;" x1="70" x2="62" y1="383.92" y2="383.92"/></g><!--link Company to State--><g id="link_Company_State"><path codeLine="66" d="M325,861.29 C325,915.46 325,969.81 325,1019.54 " fill="none" id="Company-State" style="stroke:#181818;stroke-width:1.0;"/><line style="stroke:#181818;stroke-width:1.0;" x1="325" x2="325" y1="857.29" y2="846.29"/><ellipse cx="325" cy="857.29" fill="none" rx="4" ry="4" style="stroke:#181818;stroke-width:1.0;"/><line style="stroke:#181818;stroke-width:1.0;" x1="321" x2="329" y1="850.29" y2="850.29"/><line style="stroke:#181818;stroke-width:1.0;" x1="329" x2="321" y1="1023.54" y2="1023.54"/><line style="stroke:#181818;stroke-width:1.0;" x1="329" x2="321" y1="1020.54" y2="1020.54"/><line style="stroke:#181818;stroke-width:1.0;" x1="325" x2="325" y1="1019.54" y2="1027.54"/></g><!--SRC=[fLDBQXj14Dth58MoC3Ze0hEpPHoSduKihwnWcfcAt6IwUkXksGmQR-9RP1roXAnCBYD3hf7gwld88XX2j6ZLfwlUUrKz_ekcIZbbeDI4eQuGh0itTeIqDZ3-Q8F-h7CLjAK59yUWFEm7OJC28BoRMHzyCgVM6AJEExLbQU_GHTTXLTRyVuFAXNEADOFNbWs1kTo-RzcyLxHQgrLYqJc27cdutEagrhvLjwftvci1U6FvcDMiZDYOLbNVz2Aea3gA9UsEyg1lCLOW5PfMR1qh8YoaAkXGm_ZIerlIzk77zk5n-_MdT8WnRl0QT05NitUV88Cp2Z2QJBZ38Q1HkkJOrIMdBe9BdKaPv63l7qBPIlCSxcHA8dV858jh5JXpmkP2cvHPLyLVCwyWe3BNp8TXJnbsmQx4SsigHVLPdvccW2ITBN78pDbZvRtqs6D9yVGYErfxifEQNlc_4jy1QsajwUdns-_llmImZRsCwMMTMLhh_xA88n3eQBoC-toVtEC0vbZAr-97yaBkxOH_JIE3oxeDxUPiqsdCXaNjNOXCidPJZF61xoniF7VWP3DjnQRVy078qtVFMJM9rMPuSjsOcuwlZF8F]--></g></svg>