<svg xmlns="http://www.w3.org/2000/svg" xmlns:xlink="http://www.w3.org/1999/xlink" contentStyleType="text/css" height="481px" preserveAspectRatio="none" style="width:226px;height:481px;background:#FFFFFF;" version="1.1" viewBox="0 0 226 481" width="226px" zoomAndPan="magnify"><defs/><g><!--class User--><g id="elem_User"><rect codeLine="2" fill="#F1F1F1" height="205.2656" id="User" rx="2.5" ry="2.5" style="stroke:#181818;stroke-width:0.5;" width="210" x="9" y="7"/><ellipse cx="88.75" cy="28.2969" fill="#ADD1B2" rx="11" ry="11" style="stroke:#181818;stroke-width:1.0;"/><path d="M92.8594,34.2969 L85.1406,34.2969 L85.1406,21.9063 L92.8594,21.9063 L92.8594,24.0625 L87.5938,24.0625 L87.5938,26.7344 L92.3594,26.7344 L92.3594,28.8906 L87.5938,28.8906 L87.5938,32.1406 L92.8594,32.1406 L92.8594,34.2969 Z " fill="#000000"/><text fill="#000000" font-family="sans-serif" font-size="14" lengthAdjust="spacing" textLength="32" x="114.25" y="24.9951">User</text><text fill="#000000" font-family="sans-serif" font-size="14" lengthAdjust="spacing" textLength="42" x="109.25" y="41.292">&#12518;&#12540;&#12470;</text><line style="stroke:#181818;stroke-width:0.5;" x1="10" x2="218" y1="49.5938" y2="49.5938"/><ellipse cx="20" cy="63.2422" fill="none" rx="3" ry="3" style="stroke:#038048;stroke-width:1.0;"/><text fill="#000000" font-family="sans-serif" font-size="14" lengthAdjust="spacing" textLength="74" x="29" y="66.5889">id [PK] : Int</text><line style="stroke:#181818;stroke-width:1.0;" x1="10" x2="218" y1="73.8906" y2="73.8906"/><ellipse cx="20" cy="87.5391" fill="#000000" rx="3" ry="3" style="stroke:#000000;stroke-width:1.0;"/><text fill="#000000" font-family="sans-serif" font-size="14" lengthAdjust="spacing" textLength="122" x="29" y="90.8857">email : [UK] String</text><text fill="#000000" font-family="sans-serif" font-size="14" lengthAdjust="spacing" textLength="92" x="29" y="107.1826">name : String</text><ellipse cx="20" cy="120.1328" fill="#000000" rx="3" ry="3" style="stroke:#000000;stroke-width:1.0;"/><text fill="#000000" font-family="sans-serif" font-size="14" lengthAdjust="spacing" textLength="153" x="29" y="123.4795">languages : Language</text><ellipse cx="20" cy="136.4297" fill="#000000" rx="3" ry="3" style="stroke:#000000;stroke-width:1.0;"/><text fill="#000000" font-family="sans-serif" font-size="14" lengthAdjust="spacing" textLength="153" x="29" y="139.7764">created_at : DateTime</text><ellipse cx="20" cy="152.7266" fill="#000000" rx="3" ry="3" style="stroke:#000000;stroke-width:1.0;"/><text fill="#000000" font-family="sans-serif" font-size="14" lengthAdjust="spacing" textLength="158" x="29" y="156.0732">updated_at : DateTime</text><polygon fill="none" points="20,164.0234,24,168.0234,20,172.0234,16,168.0234" style="stroke:#B38D22;stroke-width:1.0;"/><text fill="#000000" font-family="sans-serif" font-size="14" lengthAdjust="spacing" textLength="137" x="29" y="172.3701">team_id : [FK] Team</text><polygon fill="none" points="20,180.3203,24,184.3203,20,188.3203,16,184.3203" style="stroke:#B38D22;stroke-width:1.0;"/><text fill="#000000" font-family="sans-serif" font-size="14" lengthAdjust="spacing" textLength="184" x="29" y="188.667">companyId : [FK] Company</text><polygon fill="none" points="20,196.6172,24,200.6172,20,204.6172,16,200.6172" style="stroke:#B38D22;stroke-width:1.0;"/><text fill="#000000" font-family="sans-serif" font-size="14" lengthAdjust="spacing" textLength="113" x="29" y="204.9639">roleId : [FK] Role</text></g><!--class Role--><g id="elem_Role"><rect codeLine="15" fill="#F1F1F1" height="80.5938" id="Role" rx="2.5" ry="2.5" style="stroke:#181818;stroke-width:0.5;" width="123" x="52.5" y="394.27"/><ellipse cx="94.5" cy="410.27" fill="#ADD1B2" rx="11" ry="11" style="stroke:#181818;stroke-width:1.0;"/><path d="M98.6094,416.27 L90.8906,416.27 L90.8906,403.8794 L98.6094,403.8794 L98.6094,406.0356 L93.3438,406.0356 L93.3438,408.7075 L98.1094,408.7075 L98.1094,410.8638 L93.3438,410.8638 L93.3438,414.1138 L98.6094,414.1138 L98.6094,416.27 Z " fill="#000000"/><text fill="#000000" font-family="sans-serif" font-size="14" lengthAdjust="spacing" textLength="31" x="114.5" y="415.1167">Role</text><line style="stroke:#181818;stroke-width:0.5;" x1="53.5" x2="174.5" y1="426.27" y2="426.27"/><ellipse cx="63.5" cy="439.9184" fill="none" rx="3" ry="3" style="stroke:#038048;stroke-width:1.0;"/><text fill="#000000" font-family="sans-serif" font-size="14" lengthAdjust="spacing" textLength="97" x="72.5" y="443.2651">id [PK] : String</text><line style="stroke:#181818;stroke-width:1.0;" x1="53.5" x2="174.5" y1="450.5669" y2="450.5669"/><ellipse cx="63.5" cy="464.2153" fill="#000000" rx="3" ry="3" style="stroke:#000000;stroke-width:1.0;"/><text fill="#000000" font-family="sans-serif" font-size="14" lengthAdjust="spacing" textLength="92" x="72.5" y="467.562">name : String</text></g><!--link User to Role--><g id="link_User_Role"><path codeLine="22" d="M114,230.44 C114,291.98 114,333.79 114,378.99 " fill="none" id="User-Role" style="stroke:#181818;stroke-width:1.0;"/><line style="stroke:#181818;stroke-width:1.0;" x1="114" x2="108" y1="220.44" y2="212.44"/><line style="stroke:#181818;stroke-width:1.0;" x1="114" x2="120" y1="220.44" y2="212.44"/><line style="stroke:#181818;stroke-width:1.0;" x1="114" x2="114" y1="220.44" y2="212.44"/><ellipse cx="114" cy="226.44" fill="none" rx="4" ry="4" style="stroke:#181818;stroke-width:1.0;"/><line style="stroke:#181818;stroke-width:1.0;" x1="114" x2="114" y1="382.99" y2="393.99"/><ellipse cx="114" cy="382.99" fill="none" rx="4" ry="4" style="stroke:#181818;stroke-width:1.0;"/><line style="stroke:#181818;stroke-width:1.0;" x1="118" x2="110" y1="389.99" y2="389.99"/><text fill="#000000" font-family="sans-serif" font-size="13" lengthAdjust="spacing" textLength="35" x="78" y="299.2769">roleId</text></g><!--SRC=[RP1DJiCm48NtFiMeNLGgoWMwBKAg00cLT5LGDMf6mI8UH_Pa4K4tz2uSWHMtoKMOE2Nyg5vOyzvdp_WvFbkkCQ23oZ99MnFu84_U48kL5YQRIE61k-DxT_pitZucW15w3rxC1TW2jdVNZx205GkOB3C0So27jb9lkr5qBy5ogJwZ8pL7FOSAkMomfAZspQbEO1y8XOeTYf9BBNFh1jBKnLao1I5qEtsFZhtIiRdAvE-zgv7RrKYMWv5Wy1NzaBKgSp1Zz5wdl7tnB-yGOupyDvpscC6QAXJhEPhqNGUVwVAlgTdYD5cFtUfRSj_llsxCWBXn4BwDBm00]--></g></svg>