<?xml version="1.0" encoding="UTF-8" standalone="no"?><svg xmlns="http://www.w3.org/2000/svg" xmlns:xlink="http://www.w3.org/1999/xlink" contentStyleType="text/css" height="481px" preserveAspectRatio="none" style="width:226px;height:481px;background:#FFFFFF;" version="1.1" viewBox="0 0 226 481" width="226px" zoomAndPan="magnify"><defs/><g><!--MD5=[3fd616f346a44cd59a91eb10b19e157c]
class User--><g id="elem_User"><rect codeLine="2" fill="#F1F1F1" height="205.2656" id="User" rx="2.5" ry="2.5" style="stroke:#181818;stroke-width:0.5;" width="210" x="9" y="7"/><ellipse cx="88.75" cy="28.2969" fill="#ADD1B2" rx="11" ry="11" style="stroke:#181818;stroke-width:1.0;"/><path d="M92.8594,34.2969 L85.1406,34.2969 L85.1406,21.9063 L92.8594,21.9063 L92.8594,24.0625 L87.5938,24.0625 L87.5938,26.7344 L92.3594,26.7344 L92.3594,28.8906 L87.5938,28.8906 L87.5938,32.1406 L92.8594,32.1406 L92.8594,34.2969 Z " fill="#000000"/><text fill="#000000" font-family="sans-serif" font-size="14" lengthAdjust="spacing" textLength="32" x="114.25" y="24.9951">User</text><text fill="#000000" font-family="sans-serif" font-size="14" lengthAdjust="spacing" textLength="42" x="109.25" y="41.292">ユーザ</text><line style="stroke:#181818;stroke-width:0.5;" x1="10" x2="218" y1="49.5938" y2="49.5938"/><ellipse cx="20" cy="60.5938" fill="none" rx="3" ry="3" style="stroke:#038048;stroke-width:1.0;"/><text fill="#000000" font-family="sans-serif" font-size="14" lengthAdjust="spacing" textLength="74" x="29" y="66.5889">id [PK] : Int</text><line style="stroke:#181818;stroke-width:1.0;" x1="10" x2="218" y1="73.8906" y2="73.8906"/><ellipse cx="20" cy="84.8906" fill="#000000" rx="3" ry="3" style="stroke:#000000;stroke-width:1.0;"/><text fill="#000000" font-family="sans-serif" font-size="14" lengthAdjust="spacing" textLength="89" x="29" y="90.8857">email : String</text><text fill="#000000" font-family="sans-serif" font-size="14" lengthAdjust="spacing" textLength="92" x="29" y="107.1826">name : String</text><ellipse cx="20" cy="117.4844" fill="#000000" rx="3" ry="3" style="stroke:#000000;stroke-width:1.0;"/><text fill="#000000" font-family="sans-serif" font-size="14" lengthAdjust="spacing" textLength="153" x="29" y="123.4795">languages : Language</text><ellipse cx="20" cy="133.7813" fill="#000000" rx="3" ry="3" style="stroke:#000000;stroke-width:1.0;"/><text fill="#000000" font-family="sans-serif" font-size="14" lengthAdjust="spacing" textLength="153" x="29" y="139.7764">created_at : DateTime</text><ellipse cx="20" cy="150.0781" fill="#000000" rx="3" ry="3" style="stroke:#000000;stroke-width:1.0;"/><text fill="#000000" font-family="sans-serif" font-size="14" lengthAdjust="spacing" textLength="158" x="29" y="156.0732">updated_at : DateTime</text><polygon fill="none" points="20,161.375,24,165.375,20,169.375,16,165.375" style="stroke:#B38D22;stroke-width:1.0;"/><text fill="#000000" font-family="sans-serif" font-size="14" lengthAdjust="spacing" textLength="137" x="29" y="172.3701">team_id : [FK] Team</text><polygon fill="none" points="20,177.6719,24,181.6719,20,185.6719,16,181.6719" style="stroke:#B38D22;stroke-width:1.0;"/><text fill="#000000" font-family="sans-serif" font-size="14" lengthAdjust="spacing" textLength="184" x="29" y="188.667">companyId : [FK] Company</text><polygon fill="none" points="20,193.9688,24,197.9688,20,201.9688,16,197.9688" style="stroke:#B38D22;stroke-width:1.0;"/><text fill="#000000" font-family="sans-serif" font-size="14" lengthAdjust="spacing" textLength="113" x="29" y="204.9639">roleId : [FK] Role</text></g><!--MD5=[a3638c1e5b65d287ecad7f06f5c0f212]
class Role--><g id="elem_Role"><rect codeLine="15" fill="#F1F1F1" height="80.5938" id="Role" rx="2.5" ry="2.5" style="stroke:#181818;stroke-width:0.5;" width="123" x="52.5" y="394"/><ellipse cx="94.5" cy="410" fill="#ADD1B2" rx="11" ry="11" style="stroke:#181818;stroke-width:1.0;"/><path d="M98.6094,416 L90.8906,416 L90.8906,403.6094 L98.6094,403.6094 L98.6094,405.7656 L93.3438,405.7656 L93.3438,408.4375 L98.1094,408.4375 L98.1094,410.5938 L93.3438,410.5938 L93.3438,413.8438 L98.6094,413.8438 L98.6094,416 Z " fill="#000000"/><text fill="#000000" font-family="sans-serif" font-size="14" lengthAdjust="spacing" textLength="31" x="114.5" y="414.8467">Role</text><line style="stroke:#181818;stroke-width:0.5;" x1="53.5" x2="174.5" y1="426" y2="426"/><ellipse cx="63.5" cy="437" fill="none" rx="3" ry="3" style="stroke:#038048;stroke-width:1.0;"/><text fill="#000000" font-family="sans-serif" font-size="14" lengthAdjust="spacing" textLength="97" x="72.5" y="442.9951">id [PK] : String</text><line style="stroke:#181818;stroke-width:1.0;" x1="53.5" x2="174.5" y1="450.2969" y2="450.2969"/><ellipse cx="63.5" cy="461.2969" fill="#000000" rx="3" ry="3" style="stroke:#000000;stroke-width:1.0;"/><text fill="#000000" font-family="sans-serif" font-size="14" lengthAdjust="spacing" textLength="92" x="72.5" y="467.292">name : String</text></g><!--MD5=[70c37dc9bfbc8656942103c36f1181e4]
link User to Role--><g id="link_User_Role"><path codeLine="22" d="M114,220.33 C114,220.33 114,385.91 114,385.91 " fill="none" id="User-Role" style="stroke:#181818;stroke-width:1.0;"/><line style="stroke:#181818;stroke-width:1.0;" x1="114" x2="114" y1="382.91" y2="393.91"/><ellipse cx="114" cy="382.91" fill="none" rx="4" ry="4" style="stroke:#181818;stroke-width:1.0;"/><line style="stroke:#181818;stroke-width:1.0;" x1="118" x2="110" y1="389.91" y2="389.91"/><line style="stroke:#181818;stroke-width:1.0;" x1="114" x2="108" y1="220.33" y2="212.33"/><line style="stroke:#181818;stroke-width:1.0;" x1="114" x2="120" y1="220.33" y2="212.33"/><line style="stroke:#181818;stroke-width:1.0;" x1="114" x2="114" y1="220.33" y2="212.33"/><ellipse cx="114" cy="226.33" fill="none" rx="4" ry="4" style="stroke:#181818;stroke-width:1.0;"/></g><!--MD5=[be163fc3a0ec22ef3532d6952d8b74c6]
@startuml Role
skinparam linetype ortho
entity "User\nユーザ" as User {
+ id [PK] : Int 
- -
  * email : String
  name : String
  * languages : Language
  * created_at : DateTime
  * updated_at : DateTime
  # team_id : [FK] Team
  # companyId : [FK] Company
  # roleId : [FK] Role
}

entity "Role" as Role {
+ id [PK] : String 
- -
  * name : String
}

' Relations
User }o- - - -o| Role
' ManyToMany Relations
' enum relations
@enduml

@startuml Role
skinparam linetype ortho
entity "User\nユーザ" as User {
+ id [PK] : Int 
- -
  * email : String
  name : String
  * languages : Language
  * created_at : DateTime
  * updated_at : DateTime
  # team_id : [FK] Team
  # companyId : [FK] Company
  # roleId : [FK] Role
}

entity "Role" as Role {
+ id [PK] : String 
- -
  * name : String
}

User }o- - - -o| Role
@enduml

PlantUML version 1.2022.6(Tue Jun 21 17:34:49 UTC 2022)
(GPL source distribution)
Java Runtime: OpenJDK Runtime Environment
JVM: OpenJDK 64-Bit Server VM
Default Encoding: UTF-8
Language: en
Country: null
--></g></svg>