<svg xmlns="http://www.w3.org/2000/svg" xmlns:xlink="http://www.w3.org/1999/xlink" contentStyleType="text/css" height="814px" preserveAspectRatio="none" style="width:306px;height:814px;background:#FFFFFF;" version="1.1" viewBox="0 0 306 814" width="306px" zoomAndPan="magnify"><defs/><g><!--class User--><g id="elem_User"><rect codeLine="2" fill="#F1F1F1" height="205.2656" id="User" rx="2.5" ry="2.5" style="stroke:#181818;stroke-width:0.5;" width="210" x="66" y="7"/><ellipse cx="145.75" cy="28.2969" fill="#ADD1B2" rx="11" ry="11" style="stroke:#181818;stroke-width:1.0;"/><path d="M149.8594,34.2969 L142.1406,34.2969 L142.1406,21.9063 L149.8594,21.9063 L149.8594,24.0625 L144.5938,24.0625 L144.5938,26.7344 L149.3594,26.7344 L149.3594,28.8906 L144.5938,28.8906 L144.5938,32.1406 L149.8594,32.1406 L149.8594,34.2969 Z " fill="#000000"/><text fill="#000000" font-family="sans-serif" font-size="14" lengthAdjust="spacing" textLength="32" x="171.25" y="24.9951">User</text><text fill="#000000" font-family="sans-serif" font-size="14" lengthAdjust="spacing" textLength="42" x="166.25" y="41.292">&#12518;&#12540;&#12470;</text><line style="stroke:#181818;stroke-width:0.5;" x1="67" x2="275" y1="49.5938" y2="49.5938"/><ellipse cx="77" cy="63.2422" fill="none" rx="3" ry="3" style="stroke:#038048;stroke-width:1.0;"/><text fill="#000000" font-family="sans-serif" font-size="14" lengthAdjust="spacing" textLength="74" x="86" y="66.5889">id [PK] : Int</text><line style="stroke:#181818;stroke-width:1.0;" x1="67" x2="275" y1="73.8906" y2="73.8906"/><ellipse cx="77" cy="87.5391" fill="#000000" rx="3" ry="3" style="stroke:#000000;stroke-width:1.0;"/><text fill="#000000" font-family="sans-serif" font-size="14" lengthAdjust="spacing" textLength="122" x="86" y="90.8857">email : [UK] String</text><text fill="#000000" font-family="sans-serif" font-size="14" lengthAdjust="spacing" textLength="92" x="86" y="107.1826">name : String</text><ellipse cx="77" cy="120.1328" fill="#000000" rx="3" ry="3" style="stroke:#000000;stroke-width:1.0;"/><text fill="#000000" font-family="sans-serif" font-size="14" lengthAdjust="spacing" textLength="153" x="86" y="123.4795">languages : Language</text><ellipse cx="77" cy="136.4297" fill="#000000" rx="3" ry="3" style="stroke:#000000;stroke-width:1.0;"/><text fill="#000000" font-family="sans-serif" font-size="14" lengthAdjust="spacing" textLength="153" x="86" y="139.7764">created_at : DateTime</text><ellipse cx="77" cy="152.7266" fill="#000000" rx="3" ry="3" style="stroke:#000000;stroke-width:1.0;"/><text fill="#000000" font-family="sans-serif" font-size="14" lengthAdjust="spacing" textLength="158" x="86" y="156.0732">updated_at : DateTime</text><polygon fill="none" points="77,164.0234,81,168.0234,77,172.0234,73,168.0234" style="stroke:#B38D22;stroke-width:1.0;"/><text fill="#000000" font-family="sans-serif" font-size="14" lengthAdjust="spacing" textLength="137" x="86" y="172.3701">team_id : [FK] Team</text><polygon fill="none" points="77,180.3203,81,184.3203,77,188.3203,73,184.3203" style="stroke:#B38D22;stroke-width:1.0;"/><text fill="#000000" font-family="sans-serif" font-size="14" lengthAdjust="spacing" textLength="184" x="86" y="188.667">companyId : [FK] Company</text><polygon fill="none" points="77,196.6172,81,200.6172,77,204.6172,73,200.6172" style="stroke:#B38D22;stroke-width:1.0;"/><text fill="#000000" font-family="sans-serif" font-size="14" lengthAdjust="spacing" textLength="113" x="86" y="204.9639">roleId : [FK] Role</text></g><!--class Team--><g id="elem_Team"><rect codeLine="15" fill="#F1F1F1" height="107.4844" id="Team" rx="2.5" ry="2.5" style="stroke:#181818;stroke-width:0.5;" width="184" x="7" y="394.26"/><ellipse cx="71.25" cy="415.5569" fill="#ADD1B2" rx="11" ry="11" style="stroke:#181818;stroke-width:1.0;"/><path d="M75.3594,421.5569 L67.6406,421.5569 L67.6406,409.1663 L75.3594,409.1663 L75.3594,411.3225 L70.0938,411.3225 L70.0938,413.9944 L74.8594,413.9944 L74.8594,416.1506 L70.0938,416.1506 L70.0938,419.4006 L75.3594,419.4006 L75.3594,421.5569 Z " fill="#000000"/><text fill="#000000" font-family="sans-serif" font-size="14" lengthAdjust="spacing" textLength="39" x="95.75" y="412.2551">Team</text><text fill="#000000" font-family="sans-serif" font-size="14" lengthAdjust="spacing" textLength="47" x="91.75" y="428.552">Teams</text><line style="stroke:#181818;stroke-width:0.5;" x1="8" x2="190" y1="436.8538" y2="436.8538"/><ellipse cx="18" cy="450.5022" fill="none" rx="3" ry="3" style="stroke:#038048;stroke-width:1.0;"/><text fill="#000000" font-family="sans-serif" font-size="14" lengthAdjust="spacing" textLength="97" x="27" y="453.8489">id [PK] : String</text><line style="stroke:#181818;stroke-width:1.0;" x1="8" x2="190" y1="461.1506" y2="461.1506"/><ellipse cx="18" cy="474.7991" fill="#000000" rx="3" ry="3" style="stroke:#000000;stroke-width:1.0;"/><text fill="#000000" font-family="sans-serif" font-size="14" lengthAdjust="spacing" textLength="153" x="27" y="478.1457">created_at : DateTime</text><ellipse cx="18" cy="491.0959" fill="#000000" rx="3" ry="3" style="stroke:#000000;stroke-width:1.0;"/><text fill="#000000" font-family="sans-serif" font-size="14" lengthAdjust="spacing" textLength="158" x="27" y="494.4426">updated_at : DateTime</text></g><!--class Company--><g id="elem_Company"><rect codeLine="22" fill="#F1F1F1" height="123.7813" id="Company" rx="2.5" ry="2.5" style="stroke:#181818;stroke-width:0.5;" width="184" x="79" y="683.75"/><ellipse cx="134.25" cy="705.0469" fill="#ADD1B2" rx="11" ry="11" style="stroke:#181818;stroke-width:1.0;"/><path d="M138.3594,711.0469 L130.6406,711.0469 L130.6406,698.6563 L138.3594,698.6563 L138.3594,700.8125 L133.0938,700.8125 L133.0938,703.4844 L137.8594,703.4844 L137.8594,705.6406 L133.0938,705.6406 L133.0938,708.8906 L138.3594,708.8906 L138.3594,711.0469 Z " fill="#000000"/><text fill="#000000" font-family="sans-serif" font-size="14" lengthAdjust="spacing" textLength="65" x="154.75" y="701.7451">Company</text><text fill="#000000" font-family="sans-serif" font-size="14" lengthAdjust="spacing" textLength="28" x="173.25" y="718.042">&#20250;&#31038;</text><line style="stroke:#181818;stroke-width:0.5;" x1="80" x2="262" y1="726.3438" y2="726.3438"/><ellipse cx="90" cy="739.9922" fill="none" rx="3" ry="3" style="stroke:#038048;stroke-width:1.0;"/><text fill="#000000" font-family="sans-serif" font-size="14" lengthAdjust="spacing" textLength="97" x="99" y="743.3389">id [PK] : String</text><line style="stroke:#181818;stroke-width:1.0;" x1="80" x2="262" y1="750.6406" y2="750.6406"/><ellipse cx="90" cy="764.2891" fill="#000000" rx="3" ry="3" style="stroke:#000000;stroke-width:1.0;"/><text fill="#000000" font-family="sans-serif" font-size="14" lengthAdjust="spacing" textLength="84" x="99" y="767.6357">state : State</text><ellipse cx="90" cy="780.5859" fill="#000000" rx="3" ry="3" style="stroke:#000000;stroke-width:1.0;"/><text fill="#000000" font-family="sans-serif" font-size="14" lengthAdjust="spacing" textLength="153" x="99" y="783.9326">created_at : DateTime</text><ellipse cx="90" cy="796.8828" fill="#000000" rx="3" ry="3" style="stroke:#000000;stroke-width:1.0;"/><text fill="#000000" font-family="sans-serif" font-size="14" lengthAdjust="spacing" textLength="158" x="99" y="800.2295">updated_at : DateTime</text></g><!--link User to Team--><g id="link_User_Team"><path codeLine="31" d="M128.5,230.53 C128.5,290.42 128.5,337.47 128.5,386.17 " fill="none" id="User-Team" style="stroke:#181818;stroke-width:1.0;"/><line style="stroke:#181818;stroke-width:1.0;" x1="128.5" x2="122.5" y1="220.53" y2="212.53"/><line style="stroke:#181818;stroke-width:1.0;" x1="128.5" x2="134.5" y1="220.53" y2="212.53"/><line style="stroke:#181818;stroke-width:1.0;" x1="128.5" x2="128.5" y1="220.53" y2="212.53"/><ellipse cx="128.5" cy="226.53" fill="none" rx="4" ry="4" style="stroke:#181818;stroke-width:1.0;"/><line style="stroke:#181818;stroke-width:1.0;" x1="132.5" x2="124.5" y1="390.17" y2="390.17"/><line style="stroke:#181818;stroke-width:1.0;" x1="132.5" x2="124.5" y1="387.17" y2="387.17"/><line style="stroke:#181818;stroke-width:1.0;" x1="128.5" x2="128.5" y1="386.17" y2="394.17"/><text fill="#000000" font-family="sans-serif" font-size="13" lengthAdjust="spacing" textLength="52" x="75.5" y="299.4169">team_id</text></g><!--link User to Company--><g id="link_User_Company"><path codeLine="32" d="M227,230.52 C227,363.77 227,558.87 227,668.38 " fill="none" id="User-Company" style="stroke:#181818;stroke-width:1.0;"/><line style="stroke:#181818;stroke-width:1.0;" x1="227" x2="221" y1="220.52" y2="212.52"/><line style="stroke:#181818;stroke-width:1.0;" x1="227" x2="233" y1="220.52" y2="212.52"/><line style="stroke:#181818;stroke-width:1.0;" x1="227" x2="227" y1="220.52" y2="212.52"/><ellipse cx="227" cy="226.52" fill="none" rx="4" ry="4" style="stroke:#181818;stroke-width:1.0;"/><line style="stroke:#181818;stroke-width:1.0;" x1="227" x2="227" y1="672.38" y2="683.38"/><ellipse cx="227" cy="672.38" fill="none" rx="4" ry="4" style="stroke:#181818;stroke-width:1.0;"/><line style="stroke:#181818;stroke-width:1.0;" x1="231" x2="223" y1="679.38" y2="679.38"/><text fill="#000000" font-family="sans-serif" font-size="13" lengthAdjust="spacing" textLength="70" x="228" y="444.0169">companyId</text></g><!--link Team to Company--><g id="link_Team_Company"><path codeLine="34" d="M135,519.91 C135,571 135,611.71 135,665.39 " fill="none" id="Team-Company" style="stroke:#181818;stroke-width:1.0;"/><line style="stroke:#181818;stroke-width:1.0;" x1="135" x2="129" y1="509.91" y2="501.91"/><line style="stroke:#181818;stroke-width:1.0;" x1="135" x2="141" y1="509.91" y2="501.91"/><line style="stroke:#181818;stroke-width:1.0;" x1="135" x2="135" y1="509.91" y2="501.91"/><ellipse cx="135" cy="515.91" fill="none" rx="4" ry="4" style="stroke:#181818;stroke-width:1.0;"/><line style="stroke:#181818;stroke-width:1.0;" x1="135" x2="141" y1="675.39" y2="683.39"/><line style="stroke:#181818;stroke-width:1.0;" x1="135" x2="129" y1="675.39" y2="683.39"/><line style="stroke:#181818;stroke-width:1.0;" x1="135" x2="135" y1="675.39" y2="683.39"/><ellipse cx="135" cy="669.39" fill="none" rx="4" ry="4" style="stroke:#181818;stroke-width:1.0;"/></g><!--SRC=[dL5BIWD14DttAOgu24Jc0jagGb11Oh9A91H9CJQPhXwwEukGP6DkuLeyWglWPKRm6jRqV19419r5JzLxC_NUg_PBpJawD91ffh3E2QmBZrOH1ntMq1bxSbCkzg_5_b0ylNK0FPGORDGvw0LCxguVe0y33g2IH07qW0pgJB39MAZxu3IdWZCQ4h3jUv0XfojCoGjyKzUHc3l2G8iP1c4kfHnfKp6hVF4ZSmQ1qCp4ZyXUYUn8seZFhScHruEMkQY0I3gRqP4PIgTsgerUpfXoUVeOkwo-nQxIjCd_Qln4hBOrvO_3y-VBUnIiiTyrVP1f4PRtVrrqOKWP1ctPgtYxEvl8izt6qFrckwUStJR- -iSbow1RAKQsF4zcnjNL_stQA-W2ySg0Qpxx0W00]--></g></svg>