<svg xmlns="http://www.w3.org/2000/svg" xmlns:xlink="http://www.w3.org/1999/xlink" contentStyleType="text/css" height="852px" preserveAspectRatio="none" style="width:561px;height:852px;background:#FFFFFF;" version="1.1" viewBox="0 0 561 852" width="561px" zoomAndPan="magnify"><defs/><g><!--class Language--><g id="elem_Language"><rect codeLine="2" fill="#F1F1F1" height="145.7813" id="Language" rx="2.5" ry="2.5" style="stroke:#181818;stroke-width:0.5;" width="100" x="7" y="394.27"/><ellipse cx="22" cy="410.27" fill="#EB937F" rx="11" ry="11" style="stroke:#181818;stroke-width:1.0;"/><path d="M26.1094,416.27 L18.3906,416.27 L18.3906,403.8794 L26.1094,403.8794 L26.1094,406.0356 L20.8438,406.0356 L20.8438,408.7075 L25.6094,408.7075 L25.6094,410.8638 L20.8438,410.8638 L20.8438,414.1138 L26.1094,414.1138 L26.1094,416.27 Z " fill="#000000"/><text fill="#000000" font-family="sans-serif" font-size="14" lengthAdjust="spacing" textLength="68" x="36" y="415.1167">Language</text><line style="stroke:#181818;stroke-width:0.5;" x1="8" x2="106" y1="426.27" y2="426.27"/><text fill="#000000" font-family="sans-serif" font-size="14" lengthAdjust="spacing" textLength="72" x="13" y="443.2651">Typescript</text><text fill="#000000" font-family="sans-serif" font-size="14" lengthAdjust="spacing" textLength="64" x="13" y="459.562">Javascript</text><text fill="#000000" font-family="sans-serif" font-size="14" lengthAdjust="spacing" textLength="32" x="13" y="475.8589">Rust</text><text fill="#000000" font-family="sans-serif" font-size="14" lengthAdjust="spacing" textLength="20" x="13" y="492.1557">Go</text><text fill="#000000" font-family="sans-serif" font-size="14" lengthAdjust="spacing" textLength="48" x="13" y="508.4526">Python</text><text fill="#000000" font-family="sans-serif" font-size="14" lengthAdjust="spacing" textLength="28" x="13" y="524.7495">Cpp</text><line style="stroke:#181818;stroke-width:0.5;" x1="8" x2="106" y1="532.0513" y2="532.0513"/></g><!--class User--><g id="elem_User"><rect codeLine="10" fill="#F1F1F1" height="205.2656" id="User" rx="2.5" ry="2.5" style="stroke:#181818;stroke-width:0.5;" width="210" x="237" y="7"/><ellipse cx="316.75" cy="28.2969" fill="#ADD1B2" rx="11" ry="11" style="stroke:#181818;stroke-width:1.0;"/><path d="M320.8594,34.2969 L313.1406,34.2969 L313.1406,21.9063 L320.8594,21.9063 L320.8594,24.0625 L315.5938,24.0625 L315.5938,26.7344 L320.3594,26.7344 L320.3594,28.8906 L315.5938,28.8906 L315.5938,32.1406 L320.8594,32.1406 L320.8594,34.2969 Z " fill="#000000"/><text fill="#000000" font-family="sans-serif" font-size="14" lengthAdjust="spacing" textLength="32" x="342.25" y="24.9951">User</text><text fill="#000000" font-family="sans-serif" font-size="14" lengthAdjust="spacing" textLength="42" x="337.25" y="41.292">&#12518;&#12540;&#12470;</text><line style="stroke:#181818;stroke-width:0.5;" x1="238" x2="446" y1="49.5938" y2="49.5938"/><ellipse cx="248" cy="63.2422" fill="none" rx="3" ry="3" style="stroke:#038048;stroke-width:1.0;"/><text fill="#000000" font-family="sans-serif" font-size="14" lengthAdjust="spacing" textLength="74" x="257" y="66.5889">id [PK] : Int</text><line style="stroke:#181818;stroke-width:1.0;" x1="238" x2="446" y1="73.8906" y2="73.8906"/><ellipse cx="248" cy="87.5391" fill="#000000" rx="3" ry="3" style="stroke:#000000;stroke-width:1.0;"/><text fill="#000000" font-family="sans-serif" font-size="14" lengthAdjust="spacing" textLength="122" x="257" y="90.8857">email : [UK] String</text><text fill="#000000" font-family="sans-serif" font-size="14" lengthAdjust="spacing" textLength="92" x="257" y="107.1826">name : String</text><ellipse cx="248" cy="120.1328" fill="#000000" rx="3" ry="3" style="stroke:#000000;stroke-width:1.0;"/><text fill="#000000" font-family="sans-serif" font-size="14" lengthAdjust="spacing" textLength="153" x="257" y="123.4795">languages : Language</text><ellipse cx="248" cy="136.4297" fill="#000000" rx="3" ry="3" style="stroke:#000000;stroke-width:1.0;"/><text fill="#000000" font-family="sans-serif" font-size="14" lengthAdjust="spacing" textLength="153" x="257" y="139.7764">created_at : DateTime</text><ellipse cx="248" cy="152.7266" fill="#000000" rx="3" ry="3" style="stroke:#000000;stroke-width:1.0;"/><text fill="#000000" font-family="sans-serif" font-size="14" lengthAdjust="spacing" textLength="158" x="257" y="156.0732">updated_at : DateTime</text><polygon fill="none" points="248,164.0234,252,168.0234,248,172.0234,244,168.0234" style="stroke:#B38D22;stroke-width:1.0;"/><text fill="#000000" font-family="sans-serif" font-size="14" lengthAdjust="spacing" textLength="137" x="257" y="172.3701">team_id : [FK] Team</text><polygon fill="none" points="248,180.3203,252,184.3203,248,188.3203,244,184.3203" style="stroke:#B38D22;stroke-width:1.0;"/><text fill="#000000" font-family="sans-serif" font-size="14" lengthAdjust="spacing" textLength="184" x="257" y="188.667">companyId : [FK] Company</text><polygon fill="none" points="248,196.6172,252,200.6172,248,204.6172,244,200.6172" style="stroke:#B38D22;stroke-width:1.0;"/><text fill="#000000" font-family="sans-serif" font-size="14" lengthAdjust="spacing" textLength="113" x="257" y="204.9639">roleId : [FK] Role</text></g><!--class Team--><g id="elem_Team"><rect codeLine="23" fill="#F1F1F1" height="107.4844" id="Team" rx="2.5" ry="2.5" style="stroke:#181818;stroke-width:0.5;" width="184" x="142" y="413.42"/><ellipse cx="206.25" cy="434.7169" fill="#ADD1B2" rx="11" ry="11" style="stroke:#181818;stroke-width:1.0;"/><path d="M210.3594,440.7169 L202.6406,440.7169 L202.6406,428.3263 L210.3594,428.3263 L210.3594,430.4825 L205.0938,430.4825 L205.0938,433.1544 L209.8594,433.1544 L209.8594,435.3106 L205.0938,435.3106 L205.0938,438.5606 L210.3594,438.5606 L210.3594,440.7169 Z " fill="#000000"/><text fill="#000000" font-family="sans-serif" font-size="14" lengthAdjust="spacing" textLength="39" x="230.75" y="431.4151">Team</text><text fill="#000000" font-family="sans-serif" font-size="14" lengthAdjust="spacing" textLength="47" x="226.75" y="447.712">Teams</text><line style="stroke:#181818;stroke-width:0.5;" x1="143" x2="325" y1="456.0138" y2="456.0138"/><ellipse cx="153" cy="469.6622" fill="none" rx="3" ry="3" style="stroke:#038048;stroke-width:1.0;"/><text fill="#000000" font-family="sans-serif" font-size="14" lengthAdjust="spacing" textLength="97" x="162" y="473.0089">id [PK] : String</text><line style="stroke:#181818;stroke-width:1.0;" x1="143" x2="325" y1="480.3106" y2="480.3106"/><ellipse cx="153" cy="493.9591" fill="#000000" rx="3" ry="3" style="stroke:#000000;stroke-width:1.0;"/><text fill="#000000" font-family="sans-serif" font-size="14" lengthAdjust="spacing" textLength="153" x="162" y="497.3057">created_at : DateTime</text><ellipse cx="153" cy="510.2559" fill="#000000" rx="3" ry="3" style="stroke:#000000;stroke-width:1.0;"/><text fill="#000000" font-family="sans-serif" font-size="14" lengthAdjust="spacing" textLength="158" x="162" y="513.6026">updated_at : DateTime</text></g><!--class Company--><g id="elem_Company"><rect codeLine="30" fill="#F1F1F1" height="123.7813" id="Company" rx="2.5" ry="2.5" style="stroke:#181818;stroke-width:0.5;" width="184" x="233" y="722.05"/><ellipse cx="288.25" cy="743.3469" fill="#ADD1B2" rx="11" ry="11" style="stroke:#181818;stroke-width:1.0;"/><path d="M292.3594,749.3469 L284.6406,749.3469 L284.6406,736.9563 L292.3594,736.9563 L292.3594,739.1125 L287.0938,739.1125 L287.0938,741.7844 L291.8594,741.7844 L291.8594,743.9406 L287.0938,743.9406 L287.0938,747.1906 L292.3594,747.1906 L292.3594,749.3469 Z " fill="#000000"/><text fill="#000000" font-family="sans-serif" font-size="14" lengthAdjust="spacing" textLength="65" x="308.75" y="740.0451">Company</text><text fill="#000000" font-family="sans-serif" font-size="14" lengthAdjust="spacing" textLength="28" x="327.25" y="756.342">&#20250;&#31038;</text><line style="stroke:#181818;stroke-width:0.5;" x1="234" x2="416" y1="764.6438" y2="764.6438"/><ellipse cx="244" cy="778.2922" fill="none" rx="3" ry="3" style="stroke:#038048;stroke-width:1.0;"/><text fill="#000000" font-family="sans-serif" font-size="14" lengthAdjust="spacing" textLength="97" x="253" y="781.6389">id [PK] : String</text><line style="stroke:#181818;stroke-width:1.0;" x1="234" x2="416" y1="788.9406" y2="788.9406"/><ellipse cx="244" cy="802.5891" fill="#000000" rx="3" ry="3" style="stroke:#000000;stroke-width:1.0;"/><text fill="#000000" font-family="sans-serif" font-size="14" lengthAdjust="spacing" textLength="84" x="253" y="805.9357">state : State</text><ellipse cx="244" cy="818.8859" fill="#000000" rx="3" ry="3" style="stroke:#000000;stroke-width:1.0;"/><text fill="#000000" font-family="sans-serif" font-size="14" lengthAdjust="spacing" textLength="153" x="253" y="822.2326">created_at : DateTime</text><ellipse cx="244" cy="835.1828" fill="#000000" rx="3" ry="3" style="stroke:#000000;stroke-width:1.0;"/><text fill="#000000" font-family="sans-serif" font-size="14" lengthAdjust="spacing" textLength="158" x="253" y="838.5295">updated_at : DateTime</text></g><!--class Role--><g id="elem_Role"><rect codeLine="38" fill="#F1F1F1" height="80.5938" id="Role" rx="2.5" ry="2.5" style="stroke:#181818;stroke-width:0.5;" width="123" x="431.5" y="426.86"/><ellipse cx="473.5" cy="442.86" fill="#ADD1B2" rx="11" ry="11" style="stroke:#181818;stroke-width:1.0;"/><path d="M477.6094,448.86 L469.8906,448.86 L469.8906,436.4694 L477.6094,436.4694 L477.6094,438.6256 L472.3438,438.6256 L472.3438,441.2975 L477.1094,441.2975 L477.1094,443.4538 L472.3438,443.4538 L472.3438,446.7038 L477.6094,446.7038 L477.6094,448.86 Z " fill="#000000"/><text fill="#000000" font-family="sans-serif" font-size="14" lengthAdjust="spacing" textLength="31" x="493.5" y="447.7067">Role</text><line style="stroke:#181818;stroke-width:0.5;" x1="432.5" x2="553.5" y1="458.86" y2="458.86"/><ellipse cx="442.5" cy="472.5084" fill="none" rx="3" ry="3" style="stroke:#038048;stroke-width:1.0;"/><text fill="#000000" font-family="sans-serif" font-size="14" lengthAdjust="spacing" textLength="97" x="451.5" y="475.8551">id [PK] : String</text><line style="stroke:#181818;stroke-width:1.0;" x1="432.5" x2="553.5" y1="483.1569" y2="483.1569"/><ellipse cx="442.5" cy="496.8053" fill="#000000" rx="3" ry="3" style="stroke:#000000;stroke-width:1.0;"/><text fill="#000000" font-family="sans-serif" font-size="14" lengthAdjust="spacing" textLength="92" x="451.5" y="500.152">name : String</text></g><!--link User to Team--><g id="link_User_Team"><path codeLine="45" d="M296.33,230.57 C296.33,295.96 296.33,351.97 296.33,404.96 " fill="none" id="User-Team" style="stroke:#181818;stroke-width:1.0;"/><line style="stroke:#181818;stroke-width:1.0;" x1="296.33" x2="290.33" y1="220.57" y2="212.57"/><line style="stroke:#181818;stroke-width:1.0;" x1="296.33" x2="302.33" y1="220.57" y2="212.57"/><line style="stroke:#181818;stroke-width:1.0;" x1="296.33" x2="296.33" y1="220.57" y2="212.57"/><ellipse cx="296.33" cy="226.57" fill="none" rx="4" ry="4" style="stroke:#181818;stroke-width:1.0;"/><line style="stroke:#181818;stroke-width:1.0;" x1="300.33" x2="292.33" y1="408.96" y2="408.96"/><line style="stroke:#181818;stroke-width:1.0;" x1="300.33" x2="292.33" y1="405.96" y2="405.96"/><line style="stroke:#181818;stroke-width:1.0;" x1="296.33" x2="296.33" y1="404.96" y2="412.96"/><text fill="#000000" font-family="sans-serif" font-size="13" lengthAdjust="spacing" textLength="52" x="243.33" y="308.8269">team_id</text></g><!--link User to Company--><g id="link_User_Company"><path codeLine="46" d="M371.5,230.41 C371.5,372.17 371.5,590.34 371.5,706.64 " fill="none" id="User-Company" style="stroke:#181818;stroke-width:1.0;"/><line style="stroke:#181818;stroke-width:1.0;" x1="371.5" x2="365.5" y1="220.41" y2="212.41"/><line style="stroke:#181818;stroke-width:1.0;" x1="371.5" x2="377.5" y1="220.41" y2="212.41"/><line style="stroke:#181818;stroke-width:1.0;" x1="371.5" x2="371.5" y1="220.41" y2="212.41"/><ellipse cx="371.5" cy="226.41" fill="none" rx="4" ry="4" style="stroke:#181818;stroke-width:1.0;"/><line style="stroke:#181818;stroke-width:1.0;" x1="371.5" x2="371.5" y1="710.64" y2="721.64"/><ellipse cx="371.5" cy="710.64" fill="none" rx="4" ry="4" style="stroke:#181818;stroke-width:1.0;"/><line style="stroke:#181818;stroke-width:1.0;" x1="375.5" x2="367.5" y1="717.64" y2="717.64"/><text fill="#000000" font-family="sans-serif" font-size="13" lengthAdjust="spacing" textLength="70" x="354.5" y="480.0969">companyId</text></g><!--link User to Role--><g id="link_User_Role"><path codeLine="47" d="M439.25,230.57 C439.25,301.94 439.25,360.12 439.25,411.73 " fill="none" id="User-Role" style="stroke:#181818;stroke-width:1.0;"/><line style="stroke:#181818;stroke-width:1.0;" x1="439.25" x2="433.25" y1="220.57" y2="212.57"/><line style="stroke:#181818;stroke-width:1.0;" x1="439.25" x2="445.25" y1="220.57" y2="212.57"/><line style="stroke:#181818;stroke-width:1.0;" x1="439.25" x2="439.25" y1="220.57" y2="212.57"/><ellipse cx="439.25" cy="226.57" fill="none" rx="4" ry="4" style="stroke:#181818;stroke-width:1.0;"/><line style="stroke:#181818;stroke-width:1.0;" x1="439.25" x2="439.25" y1="415.73" y2="426.73"/><ellipse cx="439.25" cy="415.73" fill="none" rx="4" ry="4" style="stroke:#181818;stroke-width:1.0;"/><line style="stroke:#181818;stroke-width:1.0;" x1="443.25" x2="435.25" y1="422.73" y2="422.73"/><text fill="#000000" font-family="sans-serif" font-size="13" lengthAdjust="spacing" textLength="35" x="403.25" y="315.7169">roleId</text></g><!--link Team to Company--><g id="link_Team_Company"><path codeLine="49" d="M279.5,539.25 C279.5,594.83 279.5,645.24 279.5,703.64 " fill="none" id="Team-Company" style="stroke:#181818;stroke-width:1.0;"/><line style="stroke:#181818;stroke-width:1.0;" x1="279.5" x2="273.5" y1="529.25" y2="521.25"/><line style="stroke:#181818;stroke-width:1.0;" x1="279.5" x2="285.5" y1="529.25" y2="521.25"/><line style="stroke:#181818;stroke-width:1.0;" x1="279.5" x2="279.5" y1="529.25" y2="521.25"/><ellipse cx="279.5" cy="535.25" fill="none" rx="4" ry="4" style="stroke:#181818;stroke-width:1.0;"/><line style="stroke:#181818;stroke-width:1.0;" x1="279.5" x2="285.5" y1="713.64" y2="721.64"/><line style="stroke:#181818;stroke-width:1.0;" x1="279.5" x2="273.5" y1="713.64" y2="721.64"/><line style="stroke:#181818;stroke-width:1.0;" x1="279.5" x2="279.5" y1="713.64" y2="721.64"/><ellipse cx="279.5" cy="707.64" fill="none" rx="4" ry="4" style="stroke:#181818;stroke-width:1.0;"/></g><!--link User to Language--><g id="link_User_Language"><path codeLine="51" d="M266.67,227.47 C266.67,312.66 266.67,404.83 266.67,404.83 C266.67,404.83 177.53,404.83 115.49,404.83 " fill="none" id="User-Language" style="stroke:#181818;stroke-width:1.0;"/><line style="stroke:#181818;stroke-width:1.0;" x1="266.67" x2="266.67" y1="223.47" y2="212.47"/><ellipse cx="266.67" cy="223.47" fill="none" rx="4" ry="4" style="stroke:#181818;stroke-width:1.0;"/><line style="stroke:#181818;stroke-width:1.0;" x1="262.67" x2="270.67" y1="216.47" y2="216.47"/><line style="stroke:#181818;stroke-width:1.0;" x1="115.49" x2="107.49" y1="404.83" y2="410.83"/><line style="stroke:#181818;stroke-width:1.0;" x1="115.49" x2="107.49" y1="404.83" y2="398.83"/><line style="stroke:#181818;stroke-width:1.0;" x1="115.49" x2="107.49" y1="404.83" y2="404.83"/><line style="stroke:#181818;stroke-width:1.0;" x1="117.49" x2="117.49" y1="408.83" y2="400.83"/></g><!--SRC=[fLDBQiCm4Dtx54Ew2AJa0jwcjAGV2AcpIaeO4f6AsfAGv8A9isbkqNNf4ReAlKmAlKP7igryA85IBoJDUzAyDnhPF76XK6C6AHVC5eg1rFPHHapa6RHkKInoNB0Me84cW6K4aD1MCzDSMGgkyHb3CCoDcwua3OE2SWbQz9IALfJKSbj0QsIOdeZj-dsxtcnVFdnsXr7cS-1p60zk7Y26lh0GTRjql0CiGvuIDXuHTMyr5ml21MQCm11t8ArD6e8RmvwOQOQMpQTeYRcWPSApYidL_5Vc32p3R4f-IFQIP1CAFJwJcK9Hz0FJgm1FQfco7JEaY2eFfRiS4-56uyjsgwEogsf2vNyrlYTMsvg8hythzzkd5wonqvh6KZOFq_nV5-uAlBHRdDOzx2VbQCEGfMYv52RoBsGbk_ILfR-ukEdGFYVBfiPurwYZ3Sv9N7UADEveJoBTk2VdErEVM8OEjy7_6VhGLLcvMeOdzmC0]--></g></svg>